<svg width="16" height="16" viewBox="0 0 16 16" fill="none" xmlns="http://www.w3.org/2000/svg">
<rect width="16" height="16" rx="8" fill="white"/>
<path d="M5.35043 5.47326V6.69636H5.18784C5.16813 6.44247 5.11886 6.21786 5.04003 6.02256C4.9612 5.82725 4.81093 5.7296 4.58921 5.7296H2.71204V7.95608H3.97581C4.12361 7.95608 4.21969 7.89749 4.26403 7.78031C4.30838 7.66312 4.3404 7.48002 4.36011 7.23101H4.51531V8.93749H4.36011C4.3404 8.68848 4.30838 8.50538 4.26403 8.38819C4.21969 8.27101 4.12361 8.21242 3.97581 8.21242H2.71204V10.1826C2.71204 10.2704 2.74653 10.3364 2.8155 10.3803C2.88941 10.4194 3.00026 10.4389 3.14807 10.4389H3.35501V10.6H1.5V10.4389H1.71432C2.00502 10.4389 2.15036 10.3535 2.15036 10.1826V5.89805C2.15036 5.72716 2.00502 5.64171 1.71432 5.64171H1.5V5.47326H5.35043Z" fill="#011D47"/>
<path d="M5.56175 10.2412C5.6258 9.98725 5.73173 9.75533 5.87954 9.54538C6.03228 9.33542 6.19733 9.15232 6.3747 8.99608C6.55208 8.83495 6.77133 8.6543 7.03246 8.45411C7.29851 8.24904 7.51776 8.06594 7.69021 7.90481C7.86758 7.7388 8.01539 7.55082 8.13363 7.34087C8.25188 7.13092 8.31101 6.90387 8.31101 6.65974C8.31101 6.3619 8.22232 6.12021 8.04495 5.93467C7.8725 5.74425 7.59167 5.64904 7.20244 5.64904C6.91174 5.64904 6.67771 5.71251 6.50034 5.83946C6.3279 5.96153 6.24168 6.12754 6.24168 6.33749C6.24168 6.40585 6.21704 6.46444 6.16777 6.51326C6.12343 6.56209 6.05691 6.5865 5.96823 6.5865C5.88447 6.5865 5.81549 6.56453 5.7613 6.52059C5.71203 6.47176 5.68739 6.40096 5.68739 6.30819C5.68739 6.14707 5.75391 5.99815 5.88693 5.86143C6.02489 5.71984 6.21211 5.60754 6.44861 5.52453C6.69003 5.44153 6.95609 5.40002 7.24678 5.40002C7.72962 5.40002 8.11639 5.50744 8.40708 5.72228C8.7027 5.93223 8.85051 6.26181 8.85051 6.71101C8.85051 6.97956 8.784 7.22613 8.65097 7.45073C8.51794 7.67045 8.35535 7.86331 8.1632 8.02932C7.97597 8.19045 7.72223 8.38575 7.40198 8.61524C7.04231 8.86913 6.74669 9.11082 6.51512 9.34031C6.28848 9.56491 6.13328 9.8188 6.04952 10.102V10.2338H8.36274C8.47606 10.2338 8.56474 10.1752 8.6288 10.0581C8.69285 9.94087 8.74704 9.7773 8.79139 9.56735H8.93919L8.8579 10.6H5.56175V10.2412Z" fill="#011D47"/>
<path d="M14.2931 5.64171C14.1453 5.64171 14.0344 5.66369 13.9605 5.70763C13.8915 5.74669 13.857 5.81017 13.857 5.89805V10.1826C13.857 10.2704 13.8915 10.3364 13.9605 10.3803C14.0344 10.4194 14.1453 10.4389 14.2931 10.4389H14.5V10.6H12.645V10.4389H12.8519C13.1475 10.4389 13.2954 10.3535 13.2954 10.1826V8.00735H10.4796V10.1826C10.4796 10.3535 10.6249 10.4389 10.9156 10.4389H11.1299V10.6H9.27494V10.4389H9.48187C9.62968 10.4389 9.73808 10.4194 9.80705 10.3803C9.88096 10.3364 9.91791 10.2704 9.91791 10.1826V5.89805C9.91791 5.81017 9.88096 5.74669 9.80705 5.70763C9.73808 5.66369 9.62968 5.64171 9.48187 5.64171H9.27494V5.47326H11.1299V5.64171H10.9156C10.6249 5.64171 10.4796 5.72716 10.4796 5.89805V7.75101H13.2954V5.89805C13.2954 5.72716 13.1475 5.64171 12.8519 5.64171H12.645V5.47326H14.5V5.64171H14.2931Z" fill="#011D47"/>
</svg>
