<svg width="264" height="128" viewBox="0 0 264 128" fill="none" xmlns="http://www.w3.org/2000/svg">
<path d="M5.264 52V12.8H12.544V52H5.264ZM19.7868 52V12.8H35.9148C39.3868 12.8 42.3548 13.36 44.8188 14.48C47.3201 15.6 49.2428 17.2053 50.5868 19.296C51.9308 21.3867 52.6028 23.8693 52.6028 26.744C52.6028 29.6187 51.9308 32.1013 50.5868 34.192C49.2428 36.2453 47.3201 37.832 44.8188 38.952C42.3548 40.0347 39.3868 40.576 35.9148 40.576H23.8188L27.0668 37.272V52H19.7868ZM45.4348 52L35.5228 37.776H43.3068L53.2748 52H45.4348ZM27.0668 38.056L23.8188 34.584H35.5788C38.7895 34.584 41.1975 33.8933 42.8028 32.512C44.4455 31.1307 45.2668 29.208 45.2668 26.744C45.2668 24.2427 44.4455 22.32 42.8028 20.976C41.1975 19.632 38.7895 18.96 35.5788 18.96H23.8188L27.0668 15.376V38.056ZM57.3877 52V12.8H73.5158C76.9878 12.8 79.9557 13.36 82.4197 14.48C84.9211 15.6 86.8438 17.2053 88.1878 19.296C89.5318 21.3867 90.2037 23.8693 90.2037 26.744C90.2037 29.6187 89.5318 32.1013 88.1878 34.192C86.8438 36.2453 84.9211 37.832 82.4197 38.952C79.9557 40.0347 76.9878 40.576 73.5158 40.576H61.4197L64.6677 37.272V52H57.3877ZM83.0358 52L73.1238 37.776H80.9077L90.8758 52H83.0358ZM64.6677 38.056L61.4197 34.584H73.1797C76.3904 34.584 78.7984 33.8933 80.4037 32.512C82.0464 31.1307 82.8678 29.208 82.8678 26.744C82.8678 24.2427 82.0464 22.32 80.4037 20.976C78.7984 19.632 76.3904 18.96 73.1797 18.96H61.4197L64.6677 15.376V38.056ZM117.689 52.392C114.404 52.392 111.865 51.552 110.073 49.872C108.281 48.1547 107.385 45.6347 107.385 42.312V15.488H114.385V42.144C114.385 43.5627 114.74 44.664 115.449 45.448C116.196 46.232 117.223 46.624 118.529 46.624C120.097 46.624 121.404 46.2133 122.449 45.392L124.409 50.376C123.588 51.048 122.58 51.552 121.385 51.888C120.191 52.224 118.959 52.392 117.689 52.392ZM102.457 27.92V22.32H122.393V27.92H102.457ZM145.232 52V45.952L144.84 44.664V34.08C144.84 32.0267 144.224 30.44 142.992 29.32C141.76 28.1627 139.893 27.584 137.392 27.584C135.712 27.584 134.05 27.8453 132.408 28.368C130.802 28.8907 129.44 29.6187 128.32 30.552L125.576 25.456C127.181 24.224 129.085 23.3093 131.288 22.712C133.528 22.0773 135.842 21.76 138.232 21.76C142.562 21.76 145.904 22.8053 148.256 24.896C150.645 26.9493 151.84 30.1413 151.84 34.472V52H145.232ZM135.824 52.392C133.584 52.392 131.624 52.0187 129.944 51.272C128.264 50.488 126.957 49.424 126.024 48.08C125.128 46.6987 124.68 45.1493 124.68 43.432C124.68 41.752 125.072 40.24 125.856 38.896C126.677 37.552 128.002 36.488 129.832 35.704C131.661 34.92 134.088 34.528 137.112 34.528H145.792V39.176H137.616C135.226 39.176 133.621 39.568 132.8 40.352C131.978 41.0987 131.568 42.032 131.568 43.152C131.568 44.4213 132.072 45.4293 133.08 46.176C134.088 46.9227 135.488 47.296 137.28 47.296C138.997 47.296 140.528 46.904 141.872 46.12C143.253 45.336 144.242 44.1787 144.84 42.648L146.016 46.848C145.344 48.6027 144.13 49.9653 142.376 50.936C140.658 51.9067 138.474 52.392 135.824 52.392ZM157.463 52V22.096H164.127V30.328L163.343 27.92C164.239 25.904 165.639 24.3733 167.543 23.328C169.485 22.2827 171.893 21.76 174.767 21.76V28.424C174.469 28.3493 174.189 28.312 173.927 28.312C173.666 28.2747 173.405 28.256 173.143 28.256C170.493 28.256 168.383 29.04 166.815 30.608C165.247 32.1387 164.463 34.4347 164.463 37.496V52H157.463ZM190.624 63.256C187.861 63.256 185.155 62.8827 182.504 62.136C179.891 61.4267 177.744 60.3813 176.064 59L179.2 53.736C180.507 54.8187 182.149 55.6773 184.128 56.312C186.144 56.984 188.179 57.32 190.232 57.32C193.517 57.32 195.925 56.5547 197.456 55.024C198.987 53.5307 199.752 51.272 199.752 48.248V42.928L200.312 36.152L200.088 29.376V22.096H206.752V47.464C206.752 52.8773 205.371 56.8533 202.608 59.392C199.845 61.968 195.851 63.256 190.624 63.256ZM189.728 50.656C186.891 50.656 184.315 50.0587 182 48.864C179.723 47.632 177.912 45.9333 176.568 43.768C175.261 41.6027 174.608 39.064 174.608 36.152C174.608 33.2773 175.261 30.7573 176.568 28.592C177.912 26.4267 179.723 24.7467 182 23.552C184.315 22.3573 186.891 21.76 189.728 21.76C192.267 21.76 194.544 22.264 196.56 23.272C198.576 24.28 200.181 25.848 201.376 27.976C202.608 30.104 203.224 32.8293 203.224 36.152C203.224 39.4747 202.608 42.2187 201.376 44.384C200.181 46.512 198.576 48.0987 196.56 49.144C194.544 50.152 192.267 50.656 189.728 50.656ZM190.792 44.72C192.547 44.72 194.115 44.3653 195.496 43.656C196.877 42.9093 197.941 41.9013 198.688 40.632C199.472 39.3253 199.864 37.832 199.864 36.152C199.864 34.472 199.472 32.9973 198.688 31.728C197.941 30.4213 196.877 29.432 195.496 28.76C194.115 28.0507 192.547 27.696 190.792 27.696C189.037 27.696 187.451 28.0507 186.032 28.76C184.651 29.432 183.568 30.4213 182.784 31.728C182.037 32.9973 181.664 34.472 181.664 36.152C181.664 37.832 182.037 39.3253 182.784 40.632C183.568 41.9013 184.651 42.9093 186.032 43.656C187.451 44.3653 189.037 44.72 190.792 44.72ZM226.651 52.392C223.328 52.392 220.416 51.7387 217.915 50.432C215.451 49.088 213.528 47.2587 212.147 44.944C210.803 42.6293 210.131 39.9973 210.131 37.048C210.131 34.0613 210.784 31.4293 212.091 29.152C213.435 26.8373 215.264 25.0267 217.579 23.72C219.931 22.4133 222.6 21.76 225.587 21.76C228.499 21.76 231.093 22.3947 233.371 23.664C235.648 24.9333 237.44 26.7253 238.747 29.04C240.053 31.3547 240.707 34.08 240.707 37.216C240.707 37.5147 240.688 37.8507 240.651 38.224C240.651 38.5973 240.632 38.952 240.595 39.288H215.675V34.64H236.899L234.155 36.096C234.192 34.3787 233.837 32.8667 233.091 31.56C232.344 30.2533 231.317 29.2267 230.011 28.48C228.741 27.7333 227.267 27.36 225.587 27.36C223.869 27.36 222.357 27.7333 221.051 28.48C219.781 29.2267 218.773 30.272 218.027 31.616C217.317 32.9227 216.963 34.472 216.963 36.264V37.384C216.963 39.176 217.373 40.7627 218.195 42.144C219.016 43.5253 220.173 44.5893 221.667 45.336C223.16 46.0827 224.877 46.456 226.819 46.456C228.499 46.456 230.011 46.1947 231.355 45.672C232.699 45.1493 233.893 44.328 234.939 43.208L238.691 47.52C237.347 49.088 235.648 50.3013 233.595 51.16C231.579 51.9813 229.264 52.392 226.651 52.392ZM255.327 52.392C252.041 52.392 249.503 51.552 247.711 49.872C245.919 48.1547 245.023 45.6347 245.023 42.312V15.488H252.023V42.144C252.023 43.5627 252.377 44.664 253.087 45.448C253.833 46.232 254.86 46.624 256.167 46.624C257.735 46.624 259.041 46.2133 260.087 45.392L262.047 50.376C261.225 51.048 260.217 51.552 259.023 51.888C257.828 52.224 256.596 52.392 255.327 52.392ZM240.095 27.92V22.32H260.031V27.92H240.095Z" fill="#09268D"/>
<path d="M4.592 116V86.096H11.592V116H4.592ZM8.12 81.168C6.81333 81.168 5.73067 80.7573 4.872 79.936C4.05067 79.1147 3.64 78.1253 3.64 76.968C3.64 75.7733 4.05067 74.784 4.872 74C5.73067 73.1787 6.81333 72.768 8.12 72.768C9.42667 72.768 10.4907 73.16 11.312 73.944C12.1707 74.6907 12.6 75.6427 12.6 76.8C12.6 78.032 12.1893 79.0773 11.368 79.936C10.5467 80.7573 9.464 81.168 8.12 81.168ZM26.6595 116.392C24.1582 116.392 21.7502 116.075 19.4355 115.44C17.1582 114.768 15.3475 113.965 14.0035 113.032L16.6915 107.712C18.0355 108.571 19.6408 109.28 21.5075 109.84C23.3742 110.4 25.2408 110.68 27.1075 110.68C29.3102 110.68 30.8968 110.381 31.8675 109.784C32.8755 109.187 33.3795 108.384 33.3795 107.376C33.3795 106.555 33.0435 105.939 32.3715 105.528C31.6995 105.08 30.8222 104.744 29.7395 104.52C28.6568 104.296 27.4435 104.091 26.0995 103.904C24.7928 103.717 23.4675 103.475 22.1235 103.176C20.8168 102.84 19.6222 102.373 18.5395 101.776C17.4568 101.141 16.5795 100.301 15.9075 99.256C15.2355 98.2107 14.8995 96.8293 14.8995 95.112C14.8995 93.208 15.4408 91.5653 16.5235 90.184C17.6062 88.7653 19.1182 87.6827 21.0595 86.936C23.0382 86.152 25.3715 85.76 28.0595 85.76C30.0755 85.76 32.1102 85.984 34.1635 86.432C36.2168 86.88 37.9155 87.5147 39.2595 88.336L36.5715 93.656C35.1528 92.7973 33.7155 92.2187 32.2595 91.92C30.8408 91.584 29.4222 91.416 28.0035 91.416C25.8755 91.416 24.2888 91.7333 23.2435 92.368C22.2355 93.0027 21.7315 93.8053 21.7315 94.776C21.7315 95.672 22.0675 96.344 22.7395 96.792C23.4115 97.24 24.2888 97.5947 25.3715 97.856C26.4542 98.1173 27.6488 98.3413 28.9555 98.528C30.2995 98.6773 31.6248 98.92 32.9315 99.256C34.2382 99.592 35.4328 100.059 36.5155 100.656C37.6355 101.216 38.5315 102.019 39.2035 103.064C39.8755 104.109 40.2115 105.472 40.2115 107.152C40.2115 109.019 39.6515 110.643 38.5315 112.024C37.4488 113.405 35.8995 114.488 33.8835 115.272C31.8675 116.019 29.4595 116.392 26.6595 116.392ZM52.3644 116V111.128L67.9324 96.344C69.239 95.112 70.2097 94.0293 70.8444 93.096C71.479 92.1627 71.8897 91.304 72.0764 90.52C72.3004 89.6987 72.4124 88.9333 72.4124 88.224C72.4124 86.432 71.7964 85.0507 70.5644 84.08C69.3324 83.072 67.5217 82.568 65.1324 82.568C63.2284 82.568 61.4924 82.904 59.9244 83.576C58.3937 84.248 57.0684 85.2747 55.9484 86.656L50.8524 82.736C52.383 80.6827 54.4364 79.096 57.0124 77.976C59.6257 76.8187 62.5377 76.24 65.7484 76.24C68.5857 76.24 71.0497 76.7067 73.1404 77.64C75.2684 78.536 76.8924 79.824 78.0124 81.504C79.1697 83.184 79.7484 85.1813 79.7484 87.496C79.7484 88.7653 79.5804 90.0347 79.2444 91.304C78.9084 92.536 78.2737 93.8427 77.3404 95.224C76.407 96.6053 75.0444 98.1547 73.2524 99.872L59.8684 112.584L58.3564 109.84H81.2604V116H52.3644ZM98.4541 116.56C95.3555 116.56 92.5555 115.776 90.0541 114.208C87.5901 112.64 85.6488 110.363 84.2301 107.376C82.8115 104.352 82.1021 100.693 82.1021 96.4C82.1021 92.1067 82.8115 88.4667 84.2301 85.48C85.6488 82.456 87.5901 80.16 90.0541 78.592C92.5555 77.024 95.3555 76.24 98.4541 76.24C101.59 76.24 104.39 77.024 106.854 78.592C109.318 80.16 111.259 82.456 112.678 85.48C114.134 88.4667 114.862 92.1067 114.862 96.4C114.862 100.693 114.134 104.352 112.678 107.376C111.259 110.363 109.318 112.64 106.854 114.208C104.39 115.776 101.59 116.56 98.4541 116.56ZM98.4541 110.232C100.283 110.232 101.87 109.747 103.214 108.776C104.558 107.768 105.603 106.237 106.35 104.184C107.134 102.131 107.526 99.536 107.526 96.4C107.526 93.2267 107.134 90.632 106.35 88.616C105.603 86.5627 104.558 85.0507 103.214 84.08C101.87 83.072 100.283 82.568 98.4541 82.568C96.6995 82.568 95.1315 83.072 93.7501 84.08C92.4061 85.0507 91.3421 86.5627 90.5581 88.616C89.8115 90.632 89.4381 93.2267 89.4381 96.4C89.4381 99.536 89.8115 102.131 90.5581 104.184C91.3421 106.237 92.4061 107.768 93.7501 108.776C95.1315 109.747 96.6995 110.232 98.4541 110.232ZM121.91 116L148.678 76.8H154.166L127.398 116H121.91ZM125.158 97.912C123.328 97.912 121.704 97.464 120.286 96.568C118.867 95.672 117.766 94.4213 116.982 92.816C116.198 91.2107 115.806 89.3253 115.806 87.16C115.806 84.9947 116.198 83.1093 116.982 81.504C117.766 79.8987 118.867 78.648 120.286 77.752C121.704 76.856 123.328 76.408 125.158 76.408C127.062 76.408 128.704 76.856 130.086 77.752C131.504 78.648 132.606 79.8987 133.39 81.504C134.174 83.1093 134.566 84.9947 134.566 87.16C134.566 89.3253 134.174 91.2107 133.39 92.816C132.606 94.4213 131.504 95.672 130.086 96.568C128.704 97.464 127.062 97.912 125.158 97.912ZM125.214 93.992C126.707 93.992 127.864 93.4133 128.686 92.256C129.544 91.0613 129.974 89.3627 129.974 87.16C129.974 84.9573 129.544 83.2773 128.686 82.12C127.864 80.9253 126.707 80.328 125.214 80.328C123.72 80.328 122.526 80.9253 121.63 82.12C120.771 83.3147 120.342 84.9947 120.342 87.16C120.342 89.3253 120.771 91.0053 121.63 92.2C122.526 93.3947 123.72 93.992 125.214 93.992ZM150.862 116.392C149.032 116.392 147.408 115.944 145.99 115.048C144.571 114.152 143.47 112.901 142.686 111.296C141.902 109.691 141.51 107.805 141.51 105.64C141.51 103.475 141.902 101.589 142.686 99.984C143.47 98.3787 144.571 97.128 145.99 96.232C147.408 95.336 149.032 94.888 150.862 94.888C152.766 94.888 154.408 95.336 155.79 96.232C157.208 97.128 158.31 98.3787 159.094 99.984C159.878 101.589 160.27 103.475 160.27 105.64C160.27 107.805 159.878 109.691 159.094 111.296C158.31 112.901 157.208 114.152 155.79 115.048C154.408 115.944 152.766 116.392 150.862 116.392ZM150.862 112.472C152.355 112.472 153.531 111.875 154.39 110.68C155.248 109.485 155.678 107.805 155.678 105.64C155.678 103.475 155.248 101.795 154.39 100.6C153.531 99.4053 152.355 98.808 150.862 98.808C149.406 98.808 148.23 99.4053 147.334 100.6C146.475 101.757 146.046 103.437 146.046 105.64C146.046 107.843 146.475 109.541 147.334 110.736C148.23 111.893 149.406 112.472 150.862 112.472ZM173.423 109V83.8H179.415V109H173.423ZM163.511 99.2V93.6H189.327V99.2H163.511Z" fill="#FF535E"/>
</svg>
