<svg width="32" height="28" viewBox="0 0 32 28" fill="none" xmlns="http://www.w3.org/2000/svg">
<path d="M6.54275 28C4.63941 28 3.05328 27.3131 1.78439 25.9394C0.594796 24.5657 0 22.5051 0 19.7576C0 16.1212 1.11029 12.6061 3.33086 9.21212C5.55143 5.73738 8.40644 2.66667 11.8959 0L13.9182 1.9394C10.1115 5.81818 8.20818 9.69697 8.20818 13.5758C8.20818 14.4646 8.36679 15.2727 8.68401 16C9.08054 16.6465 9.59603 17.3737 10.2305 18.1818C11.5787 19.7172 12.2528 21.2121 12.2528 22.6667C12.2528 24.202 11.6976 25.4949 10.5874 26.5455C9.55638 27.5152 8.20818 28 6.54275 28ZM24.6245 28C22.7212 28 21.1351 27.3131 19.8662 25.9394C18.6766 24.5657 18.0818 22.5051 18.0818 19.7576C18.0818 16.1212 19.1921 12.6061 21.4126 9.21212C23.6332 5.73738 26.4882 2.66667 29.9777 0L32 1.9394C28.1933 5.81818 26.29 9.69697 26.29 13.5758C26.29 14.4646 26.4486 15.2727 26.7658 16C27.1623 16.6465 27.6778 17.3737 28.3123 18.1818C29.6605 19.7172 30.3346 21.2121 30.3346 22.6667C30.3346 24.202 29.7794 25.4949 28.6691 26.5455C27.6382 27.5152 26.29 28 24.6245 28Z" fill="#011D47"/>
</svg>
