<svg width="81" height="56" viewBox="0 0 81 56" fill="none" xmlns="http://www.w3.org/2000/svg">
<path d="M23.9656 0.445456V7.88459H22.9856C22.8668 6.34034 22.5699 4.97427 22.0947 3.78639C21.6196 2.5985 20.7138 2.00456 19.3774 2.00456H8.06282V15.5464H15.6801C16.571 15.5464 17.1501 15.1901 17.4174 14.4773C17.6847 13.7646 17.8777 12.651 17.9965 11.1364H18.932V21.5156H17.9965C17.8777 20.001 17.6847 18.8874 17.4174 18.1746C17.1501 17.4619 16.571 17.1055 15.6801 17.1055H8.06282V29.0883C8.06282 29.6229 8.2707 30.0238 8.68646 30.2911C9.13191 30.5286 9.8001 30.6474 10.691 30.6474H11.9383V31.6274H0.757324V30.6474H2.04915C3.80128 30.6474 4.67735 30.1277 4.67735 29.0883V3.02911C4.67735 1.98971 3.80128 1.47001 2.04915 1.47001H0.757324V0.445456H23.9656Z" fill="#011D47"/>
<path d="M25.2394 29.4447C25.6254 27.9005 26.2639 26.4898 27.1548 25.2129C28.0754 23.9359 29.0703 22.8222 30.1394 21.8719C31.2085 20.8919 32.53 19.7931 34.104 18.5756C35.7076 17.3283 37.0291 16.2146 38.0685 15.2346C39.1376 14.2249 40.0285 13.0816 40.7413 11.8046C41.454 10.5276 41.8104 9.14672 41.8104 7.66186C41.8104 5.85033 41.2758 4.38033 40.2067 3.25184C39.1673 2.09365 37.4746 1.51455 35.1285 1.51455C33.3764 1.51455 31.9658 1.90062 30.8967 2.67274C29.8573 3.41517 29.3376 4.42487 29.3376 5.70185C29.3376 6.11761 29.1891 6.47398 28.8921 6.77095C28.6248 7.06792 28.2239 7.2164 27.6894 7.2164C27.1845 7.2164 26.7688 7.08277 26.4421 6.81549C26.1451 6.51852 25.9966 6.08791 25.9966 5.52367C25.9966 4.54366 26.3975 3.6379 27.1994 2.80638C28.0309 1.94516 29.1594 1.26213 30.5848 0.757279C32.04 0.252427 33.6436 0 35.3958 0C38.3061 0 40.6373 0.653338 42.3895 1.96001C44.1713 3.23699 45.0622 5.24155 45.0622 7.97368C45.0622 9.60702 44.6613 11.1067 43.8595 12.4728C43.0576 13.8092 42.0776 14.9822 40.9194 15.9919C39.791 16.9719 38.2615 18.1598 36.3312 19.5556C34.1633 21.0998 32.3815 22.5698 30.9858 23.9656C29.6197 25.3316 28.6842 26.8759 28.1794 28.5983V29.4002H42.1222C42.8052 29.4002 43.3398 29.0438 43.7258 28.3311C44.1119 27.6183 44.4386 26.6235 44.7058 25.3465H45.5967L45.1067 31.6274H25.2394V29.4447Z" fill="#011D47"/>
<path d="M77.867 1.47001C76.9761 1.47001 76.3079 1.60364 75.8624 1.87092C75.4466 2.1085 75.2388 2.49456 75.2388 3.02911V29.0883C75.2388 29.6229 75.4466 30.0238 75.8624 30.2911C76.3079 30.5286 76.9761 30.6474 77.867 30.6474H79.1142V31.6274H67.9333V30.6474H69.1806C70.9624 30.6474 71.8533 30.1277 71.8533 29.0883V15.8583H54.8814V29.0883C54.8814 30.1277 55.7574 30.6474 57.5096 30.6474H58.8014V31.6274H47.6204V30.6474H48.8677C49.7586 30.6474 50.412 30.5286 50.8277 30.2911C51.2732 30.0238 51.4959 29.6229 51.4959 29.0883V3.02911C51.4959 2.49456 51.2732 2.1085 50.8277 1.87092C50.412 1.60364 49.7586 1.47001 48.8677 1.47001H47.6204V0.445456H58.8014V1.47001H57.5096C55.7574 1.47001 54.8814 1.98971 54.8814 3.02911V14.2992H71.8533V3.02911C71.8533 1.98971 70.9624 1.47001 69.1806 1.47001H67.9333V0.445456H79.1142V1.47001H77.867Z" fill="#011D47"/>
<line x1="1.82831e-08" y1="39.5746" x2="80.3077" y2="39.5746" stroke="#FF535E" stroke-width="0.418269"/>
<path d="M4.12215 55.9999C2.96271 55.9999 2.07054 55.6461 1.44564 54.9384C0.820748 54.2307 0.508301 53.2293 0.508301 51.9344C0.508301 51.0836 0.655113 50.3533 0.948738 49.7435C1.24236 49.1336 1.66774 48.6706 2.22488 48.3544C2.78954 48.0306 3.45585 47.8688 4.22379 47.8688C4.69811 47.8688 5.11219 47.9403 5.46605 48.0833C5.82743 48.2189 6.12859 48.3732 6.36951 48.5464C6.42974 48.584 6.46362 48.6028 6.47115 48.6028C6.53891 48.6028 6.57279 48.5388 6.57279 48.4109V47.9252H6.92288V50.0258H6.65184C6.59914 49.4837 6.35822 49.0583 5.92907 48.7497C5.50746 48.4334 4.98797 48.2753 4.3706 48.2753C3.39938 48.2753 2.65402 48.6066 2.13453 49.2691C1.62257 49.9242 1.36659 50.8126 1.36659 51.9344C1.36659 53.0637 1.60751 53.9596 2.08936 54.6222C2.57121 55.2772 3.29774 55.6047 4.26896 55.6047C4.79598 55.6047 5.29288 55.4692 5.75967 55.1981C6.22646 54.9195 6.54267 54.5092 6.70831 53.9671H7.08099C6.94547 54.6071 6.61043 55.1078 6.07589 55.4692C5.54887 55.823 4.89762 55.9999 4.12215 55.9999Z" fill="#011D47"/>
<path d="M14.8756 55.6386V55.887H12.2669V55.6386H12.4363C12.5944 55.6386 12.7412 55.6122 12.8767 55.5595C13.0122 55.5068 13.065 55.439 13.0348 55.3562L12.3459 53.4364H9.12736L8.49494 55.1416C8.47988 55.2019 8.47235 55.2395 8.47235 55.2546C8.47235 55.3675 8.53635 55.4616 8.66434 55.5369C8.79233 55.6047 8.92785 55.6386 9.0709 55.6386H9.26288V55.887H6.92517V55.6386H7.09457C7.24515 55.6386 7.39949 55.6009 7.5576 55.5256C7.7157 55.4428 7.81734 55.3487 7.86252 55.2433L10.539 48.1398L11.1714 47.8462L13.9609 55.2433C14.0061 55.3637 14.1002 55.4616 14.2432 55.5369C14.3938 55.6047 14.5406 55.6386 14.6837 55.6386H14.8756ZM12.2104 53.0411L10.7649 49.0207L9.27417 53.0411H12.2104Z" fill="#011D47"/>
<path d="M14.6483 55.6386H14.9645C15.1904 55.6386 15.356 55.6084 15.4614 55.5482C15.5743 55.4804 15.6308 55.3788 15.6308 55.2433V48.6367C15.6308 48.5012 15.5743 48.4033 15.4614 48.3431C15.356 48.2753 15.1904 48.2415 14.9645 48.2415H14.6483V47.9817H18.3525C19.9335 47.9817 20.7241 48.7798 20.7241 50.3759C20.7241 51.1212 20.5358 51.7085 20.1594 52.1376C19.7829 52.5593 19.1806 52.7701 18.3525 52.7701H16.4891V55.2433C16.4891 55.5068 16.7112 55.6386 17.1554 55.6386H17.4829V55.887H14.6483V55.6386ZM18.2169 52.3748C18.7891 52.3748 19.2108 52.1979 19.4818 51.844C19.7528 51.4902 19.8884 51.0008 19.8884 50.3759C19.8884 49.7435 19.7528 49.2541 19.4818 48.9078C19.2108 48.5539 18.7891 48.377 18.2169 48.377H16.4891V52.3748H18.2169Z" fill="#011D47"/>
<path d="M20.6905 55.6386H21.018C21.4622 55.6386 21.6843 55.5068 21.6843 55.2433V48.6367C21.6843 48.3732 21.4622 48.2415 21.018 48.2415H20.6905V47.9817H23.5251V48.2415H23.2089C22.9831 48.2415 22.8137 48.2753 22.7007 48.3431C22.5953 48.4033 22.5426 48.5012 22.5426 48.6367V55.2433C22.5426 55.3788 22.5953 55.4804 22.7007 55.5482C22.8137 55.6084 22.9831 55.6386 23.2089 55.6386H23.5251V55.887H20.6905V55.6386Z" fill="#011D47"/>
<path d="M25.4184 55.6386H25.7346C26.1863 55.6386 26.4122 55.5068 26.4122 55.2433V48.377H24.8085C24.5074 48.377 24.3003 48.5501 24.1874 48.8965C24.082 49.2353 24.018 49.6042 23.9954 50.0032H23.7469V47.9817H29.9244V50.0032H29.6759C29.6533 49.6042 29.5856 49.2353 29.4726 48.8965C29.3672 48.5501 29.164 48.377 28.8628 48.377H27.2704V55.2433C27.2704 55.3788 27.3231 55.4804 27.4286 55.5482C27.5415 55.6084 27.7109 55.6386 27.9368 55.6386H28.253V55.887H25.4184V55.6386Z" fill="#011D47"/>
<path d="M36.7144 55.6386V55.887H34.1057V55.6386H34.2751C34.4332 55.6386 34.58 55.6122 34.7155 55.5595C34.8511 55.5068 34.9038 55.439 34.8736 55.3562L34.1848 53.4364H30.9662L30.3338 55.1416C30.3187 55.2019 30.3112 55.2395 30.3112 55.2546C30.3112 55.3675 30.3752 55.4616 30.5031 55.5369C30.6311 55.6047 30.7667 55.6386 30.9097 55.6386H31.1017V55.887H28.764V55.6386H28.9334C29.084 55.6386 29.2383 55.6009 29.3964 55.5256C29.5545 55.4428 29.6562 55.3487 29.7013 55.2433L32.3778 48.1398L33.0103 47.8462L35.7997 55.2433C35.8449 55.3637 35.939 55.4616 36.082 55.5369C36.2326 55.6047 36.3794 55.6386 36.5225 55.6386H36.7144ZM34.0492 53.0411L32.6037 49.0207L31.113 53.0411H34.0492Z" fill="#011D47"/>
<path d="M36.4984 55.6386H36.8146C37.2663 55.6386 37.4922 55.5068 37.4922 55.2433V48.6367C37.4922 48.3732 37.2663 48.2415 36.8146 48.2415H36.4984V47.9817H39.333V48.2415H39.0168C38.7909 48.2415 38.6215 48.2753 38.5086 48.3431C38.4032 48.4033 38.3505 48.5012 38.3505 48.6367V55.0626C38.3505 55.3487 38.5763 55.4917 39.0281 55.4917H41.219C41.5201 55.4917 41.746 55.3148 41.8966 54.961C42.0547 54.5996 42.1525 54.2344 42.1902 53.8655H42.4499L42.2692 55.887H36.4984V55.6386Z" fill="#011D47"/>
<path d="M48.5718 55.9999C47.4123 55.9999 46.5202 55.6461 45.8953 54.9384C45.2704 54.2307 44.9579 53.2293 44.9579 51.9344C44.9579 51.0836 45.1047 50.3533 45.3984 49.7435C45.6995 49.1336 46.1287 48.6706 46.6858 48.3544C47.2505 48.0306 47.9205 47.8688 48.696 47.8688C49.1251 47.8688 49.5355 47.9365 49.927 48.0721C50.3185 48.2076 50.6196 48.3657 50.8304 48.5464C50.8605 48.5765 50.9019 48.5915 50.9546 48.5915C51.0224 48.5915 51.0563 48.5313 51.0563 48.4109V47.9252H51.4064V50.0258H51.1353C51.0751 49.4837 50.8304 49.0583 50.4013 48.7497C49.9721 48.4334 49.4489 48.2753 48.8315 48.2753C47.8678 48.2753 47.1225 48.6066 46.5954 49.2691C46.076 49.9317 45.8162 50.8201 45.8162 51.9344C45.8162 53.0637 46.0571 53.9596 46.539 54.6222C47.0208 55.2772 47.7474 55.6047 48.7186 55.6047C49.0724 55.6047 49.4338 55.5595 49.8027 55.4692C50.1716 55.3788 50.4841 55.2207 50.7401 54.9948V52.7136C50.7401 52.5028 50.646 52.3597 50.4577 52.2844C50.2771 52.2016 50.006 52.1565 49.6446 52.1489V51.9231H52.2308V52.1263H52.1404C51.9673 52.1263 51.8393 52.1527 51.7565 52.2054C51.6812 52.2581 51.6285 52.356 51.5984 52.499C51.5758 52.6345 51.5645 52.8453 51.5645 53.1314V55.0965C51.188 55.3901 50.7702 55.616 50.3109 55.7741C49.8517 55.9246 49.272 55.9999 48.5718 55.9999Z" fill="#011D47"/>
<path d="M57.3607 53.922C57.4661 54.2984 57.5639 54.5996 57.6543 54.8254C57.7446 55.0513 57.8726 55.2433 58.0383 55.4014C58.2114 55.5595 58.4298 55.6386 58.6933 55.6386V55.887H57.9366C57.6054 55.887 57.3381 55.7891 57.1348 55.5934C56.9391 55.3901 56.7885 55.1002 56.6831 54.7238L56.5476 54.193C56.4497 53.7865 56.3518 53.4552 56.2539 53.1992C56.1636 52.9432 56.0356 52.7399 55.87 52.5894H55.7006H53.8936V55.2433C53.8936 55.5068 54.1157 55.6386 54.5599 55.6386H54.8874V55.887H52.0528V55.6386H52.369C52.5949 55.6386 52.7605 55.6084 52.8659 55.5482C52.9789 55.4804 53.0353 55.3788 53.0353 55.2433V48.6367C53.0353 48.5012 52.9789 48.4033 52.8659 48.3431C52.7605 48.2753 52.5949 48.2415 52.369 48.2415H52.0528V47.9817H55.7006C56.5438 47.9817 57.1536 48.1812 57.5301 48.5803C57.9065 48.9793 58.0947 49.5477 58.0947 50.2855C58.0947 51.5127 57.5865 52.2506 56.5701 52.499C56.7809 52.612 56.9353 52.7814 57.0332 53.0072C57.1386 53.2256 57.2477 53.5305 57.3607 53.922ZM55.565 52.1941C56.6944 52.1941 57.259 51.5579 57.259 50.2855C57.259 49.0132 56.6944 48.377 55.565 48.377H53.8936V52.1941H55.565Z" fill="#011D47"/>
<path d="M62.7184 55.9999C61.5137 55.9999 60.5877 55.6461 59.9402 54.9384C59.2927 54.2307 58.969 53.2293 58.969 51.9344C58.969 50.6469 59.2927 49.6494 59.9402 48.9416C60.5877 48.2264 61.5137 47.8688 62.7184 47.8688C63.9154 47.8688 64.8377 48.2264 65.4852 48.9416C66.1327 49.6494 66.4564 50.6469 66.4564 51.9344C66.4564 53.2293 66.1327 54.2307 65.4852 54.9384C64.8377 55.6461 63.9154 55.9999 62.7184 55.9999ZM62.7071 55.5934C63.6632 55.5934 64.3822 55.2659 64.8641 54.6109C65.3535 53.9559 65.5981 53.0637 65.5981 51.9344C65.5981 50.805 65.3535 49.9129 64.8641 49.2579C64.3822 48.6028 63.6632 48.2753 62.7071 48.2753C61.766 48.2753 61.0507 48.6028 60.5613 49.2579C60.072 49.9129 59.8273 50.805 59.8273 51.9344C59.8273 53.0637 60.072 53.9559 60.5613 54.6109C61.0507 55.2659 61.766 55.5934 62.7071 55.5934Z" fill="#011D47"/>
<path d="M70.4459 55.9999C69.4972 55.9999 68.7745 55.8192 68.2776 55.4579C67.7807 55.0889 67.5322 54.4791 67.5322 53.6283V48.6367C67.5322 48.5012 67.4757 48.4033 67.3628 48.3431C67.2499 48.2753 67.1031 48.2415 66.9224 48.2415H66.6852V47.9817H69.2375V48.2415H69.0003C68.8196 48.2415 68.6728 48.2753 68.5599 48.3431C68.447 48.4033 68.3905 48.5012 68.3905 48.6367V53.6961C68.3905 54.4113 68.5862 54.9083 68.9777 55.1868C69.3768 55.4654 69.9301 55.6047 70.6379 55.6047C71.2552 55.6047 71.7672 55.4616 72.1737 55.1755C72.5878 54.8894 72.7949 54.3963 72.7949 53.6961V48.6367C72.7949 48.5012 72.7384 48.4033 72.6255 48.3431C72.5125 48.2753 72.3657 48.2415 72.185 48.2415H71.9592V47.9817H74.1388V48.2415H73.9016C73.7209 48.2415 73.5741 48.2753 73.4612 48.3431C73.3482 48.4033 73.2918 48.5012 73.2918 48.6367V53.6283C73.2918 54.464 73.0471 55.0701 72.5577 55.4466C72.0759 55.8155 71.3719 55.9999 70.4459 55.9999Z" fill="#011D47"/>
<path d="M74.2137 55.6386H74.5299C74.7558 55.6386 74.9214 55.6084 75.0268 55.5482C75.1397 55.4804 75.1962 55.3788 75.1962 55.2433V48.6367C75.1962 48.5012 75.1397 48.4033 75.0268 48.3431C74.9214 48.2753 74.7558 48.2415 74.5299 48.2415H74.2137V47.9817H77.9179C79.4989 47.9817 80.2895 48.7798 80.2895 50.3759C80.2895 51.1212 80.1012 51.7085 79.7248 52.1376C79.3484 52.5593 78.746 52.7701 77.9179 52.7701H76.0545V55.2433C76.0545 55.5068 76.2766 55.6386 76.7208 55.6386H77.0483V55.887H74.2137V55.6386ZM77.7824 52.3748C78.3545 52.3748 78.7762 52.1979 79.0472 51.844C79.3182 51.4902 79.4538 51.0008 79.4538 50.3759C79.4538 49.7435 79.3182 49.2541 79.0472 48.9078C78.7762 48.5539 78.3545 48.377 77.7824 48.377H76.0545V52.3748H77.7824Z" fill="#011D47"/>
</svg>
