<svg width="80" height="88" viewBox="0 0 80 88" fill="none" xmlns="http://www.w3.org/2000/svg">
<g clip-path="url(#clip0_401_2676)">
<path d="M23.9656 16.4455V23.8846H22.9856C22.8668 22.3403 22.5699 20.9743 22.0947 19.7864C21.6196 18.5985 20.7138 18.0046 19.3774 18.0046H8.06282V31.5464H15.6801C16.571 31.5464 17.1501 31.1901 17.4174 30.4773C17.6847 29.7646 17.8777 28.651 17.9965 27.1364H18.932V37.5156H17.9965C17.8777 36.001 17.6847 34.8874 17.4174 34.1746C17.1501 33.4619 16.571 33.1055 15.6801 33.1055H8.06282V45.0883C8.06282 45.6229 8.2707 46.0238 8.68646 46.2911C9.13191 46.5286 9.8001 46.6474 10.691 46.6474H11.9383V47.6274H0.757324V46.6474H2.04915C3.80128 46.6474 4.67735 46.1277 4.67735 45.0883V19.0291C4.67735 17.9897 3.80128 17.47 2.04915 17.47H0.757324V16.4455H23.9656Z" fill="#011D47"/>
<path d="M25.2394 45.4447C25.6254 43.9005 26.2639 42.4898 27.1548 41.2129C28.0754 39.9359 29.0703 38.8222 30.1394 37.8719C31.2085 36.8919 32.53 35.7931 34.104 34.5756C35.7076 33.3283 37.0291 32.2146 38.0685 31.2346C39.1376 30.2249 40.0285 29.0816 40.7413 27.8046C41.454 26.5276 41.8104 25.1467 41.8104 23.6619C41.8104 21.8503 41.2758 20.3803 40.2067 19.2518C39.1673 18.0936 37.4746 17.5146 35.1285 17.5146C33.3764 17.5146 31.9658 17.9006 30.8967 18.6727C29.8573 19.4152 29.3376 20.4249 29.3376 21.7018C29.3376 22.1176 29.1891 22.474 28.8921 22.7709C28.6248 23.0679 28.2239 23.2164 27.6894 23.2164C27.1845 23.2164 26.7688 23.0828 26.4421 22.8155C26.1451 22.5185 25.9966 22.0879 25.9966 21.5237C25.9966 20.5437 26.3975 19.6379 27.1994 18.8064C28.0309 17.9452 29.1594 17.2621 30.5848 16.7573C32.04 16.2524 33.6436 16 35.3958 16C38.3061 16 40.6373 16.6533 42.3895 17.96C44.1713 19.237 45.0622 21.2415 45.0622 23.9737C45.0622 25.607 44.6613 27.1067 43.8595 28.4728C43.0576 29.8092 42.0776 30.9822 40.9194 31.9919C39.791 32.9719 38.2615 34.1598 36.3312 35.5556C34.1633 37.0998 32.3815 38.5698 30.9858 39.9656C29.6197 41.3316 28.6842 42.8759 28.1794 44.5983V45.4002H42.1222C42.8052 45.4002 43.3398 45.0438 43.7258 44.3311C44.1119 43.6183 44.4386 42.6235 44.7058 41.3465H45.5967L45.1067 47.6274H25.2394V45.4447Z" fill="#011D47"/>
<path d="M77.867 17.47C76.9761 17.47 76.3079 17.6036 75.8624 17.8709C75.4466 18.1085 75.2388 18.4946 75.2388 19.0291V45.0883C75.2388 45.6229 75.4466 46.0238 75.8624 46.2911C76.3079 46.5286 76.9761 46.6474 77.867 46.6474H79.1142V47.6274H67.9333V46.6474H69.1806C70.9624 46.6474 71.8533 46.1277 71.8533 45.0883V31.8583H54.8814V45.0883C54.8814 46.1277 55.7574 46.6474 57.5096 46.6474H58.8014V47.6274H47.6204V46.6474H48.8677C49.7586 46.6474 50.412 46.5286 50.8277 46.2911C51.2732 46.0238 51.4959 45.6229 51.4959 45.0883V19.0291C51.4959 18.4946 51.2732 18.1085 50.8277 17.8709C50.412 17.6036 49.7586 17.47 48.8677 17.47H47.6204V16.4455H58.8014V17.47H57.5096C55.7574 17.47 54.8814 17.9897 54.8814 19.0291V30.2992H71.8533V19.0291C71.8533 17.9897 70.9624 17.47 69.1806 17.47H67.9333V16.4455H79.1142V17.47H77.867Z" fill="#011D47"/>
<line x1="1.82831e-08" y1="55.5743" x2="80.3077" y2="55.5743" stroke="#FF535E" stroke-width="0.418269"/>
<path d="M4.12215 71.9999C2.96271 71.9999 2.07054 71.6461 1.44564 70.9384C0.820748 70.2307 0.508301 69.2293 0.508301 67.9344C0.508301 67.0836 0.655113 66.3533 0.948738 65.7435C1.24236 65.1336 1.66774 64.6706 2.22488 64.3544C2.78954 64.0306 3.45585 63.8688 4.22379 63.8688C4.69811 63.8688 5.11219 63.9403 5.46605 64.0833C5.82743 64.2189 6.12859 64.3732 6.36951 64.5464C6.42974 64.584 6.46362 64.6028 6.47115 64.6028C6.53891 64.6028 6.57279 64.5388 6.57279 64.4109V63.9252H6.92288V66.0258H6.65184C6.59914 65.4837 6.35822 65.0583 5.92907 64.7497C5.50746 64.4334 4.98797 64.2753 4.3706 64.2753C3.39938 64.2753 2.65402 64.6066 2.13453 65.2691C1.62257 65.9242 1.36659 66.8126 1.36659 67.9344C1.36659 69.0637 1.60751 69.9596 2.08936 70.6222C2.57121 71.2772 3.29774 71.6047 4.26896 71.6047C4.79598 71.6047 5.29288 71.4692 5.75967 71.1981C6.22646 70.9195 6.54267 70.5092 6.70831 69.9671H7.08099C6.94547 70.6071 6.61043 71.1078 6.07589 71.4692C5.54887 71.823 4.89762 71.9999 4.12215 71.9999Z" fill="#011D47"/>
<path d="M14.8756 71.6386V71.887H12.2669V71.6386H12.4363C12.5944 71.6386 12.7412 71.6122 12.8767 71.5595C13.0122 71.5068 13.065 71.439 13.0348 71.3562L12.3459 69.4364H9.12736L8.49494 71.1416C8.47988 71.2019 8.47235 71.2395 8.47235 71.2546C8.47235 71.3675 8.53635 71.4616 8.66434 71.5369C8.79233 71.6047 8.92785 71.6386 9.0709 71.6386H9.26288V71.887H6.92517V71.6386H7.09457C7.24515 71.6386 7.39949 71.6009 7.5576 71.5256C7.7157 71.4428 7.81734 71.3487 7.86252 71.2433L10.539 64.1398L11.1714 63.8462L13.9609 71.2433C14.0061 71.3637 14.1002 71.4616 14.2432 71.5369C14.3938 71.6047 14.5406 71.6386 14.6837 71.6386H14.8756ZM12.2104 69.0411L10.7649 65.0207L9.27417 69.0411H12.2104Z" fill="#011D47"/>
<path d="M14.6483 71.6386H14.9645C15.1904 71.6386 15.356 71.6084 15.4614 71.5482C15.5743 71.4804 15.6308 71.3788 15.6308 71.2433V64.6367C15.6308 64.5012 15.5743 64.4033 15.4614 64.3431C15.356 64.2753 15.1904 64.2415 14.9645 64.2415H14.6483V63.9817H18.3525C19.9335 63.9817 20.7241 64.7798 20.7241 66.3759C20.7241 67.1212 20.5358 67.7085 20.1594 68.1376C19.7829 68.5593 19.1806 68.7701 18.3525 68.7701H16.4891V71.2433C16.4891 71.5068 16.7112 71.6386 17.1554 71.6386H17.4829V71.887H14.6483V71.6386ZM18.2169 68.3748C18.7891 68.3748 19.2108 68.1979 19.4818 67.844C19.7528 67.4902 19.8884 67.0008 19.8884 66.3759C19.8884 65.7435 19.7528 65.2541 19.4818 64.9078C19.2108 64.5539 18.7891 64.377 18.2169 64.377H16.4891V68.3748H18.2169Z" fill="#011D47"/>
<path d="M20.6905 71.6386H21.018C21.4622 71.6386 21.6843 71.5068 21.6843 71.2433V64.6367C21.6843 64.3732 21.4622 64.2415 21.018 64.2415H20.6905V63.9817H23.5251V64.2415H23.2089C22.9831 64.2415 22.8137 64.2753 22.7007 64.3431C22.5953 64.4033 22.5426 64.5012 22.5426 64.6367V71.2433C22.5426 71.3788 22.5953 71.4804 22.7007 71.5482C22.8137 71.6084 22.9831 71.6386 23.2089 71.6386H23.5251V71.887H20.6905V71.6386Z" fill="#011D47"/>
<path d="M25.4184 71.6386H25.7346C26.1863 71.6386 26.4122 71.5068 26.4122 71.2433V64.377H24.8085C24.5074 64.377 24.3003 64.5501 24.1874 64.8965C24.082 65.2353 24.018 65.6042 23.9954 66.0032H23.7469V63.9817H29.9244V66.0032H29.6759C29.6533 65.6042 29.5856 65.2353 29.4726 64.8965C29.3672 64.5501 29.164 64.377 28.8628 64.377H27.2704V71.2433C27.2704 71.3788 27.3231 71.4804 27.4286 71.5482C27.5415 71.6084 27.7109 71.6386 27.9368 71.6386H28.253V71.887H25.4184V71.6386Z" fill="#011D47"/>
<path d="M36.7144 71.6386V71.887H34.1057V71.6386H34.2751C34.4332 71.6386 34.58 71.6122 34.7155 71.5595C34.8511 71.5068 34.9038 71.439 34.8736 71.3562L34.1848 69.4364H30.9662L30.3338 71.1416C30.3187 71.2019 30.3112 71.2395 30.3112 71.2546C30.3112 71.3675 30.3752 71.4616 30.5031 71.5369C30.6311 71.6047 30.7667 71.6386 30.9097 71.6386H31.1017V71.887H28.764V71.6386H28.9334C29.084 71.6386 29.2383 71.6009 29.3964 71.5256C29.5545 71.4428 29.6562 71.3487 29.7013 71.2433L32.3778 64.1398L33.0103 63.8462L35.7997 71.2433C35.8449 71.3637 35.939 71.4616 36.082 71.5369C36.2326 71.6047 36.3794 71.6386 36.5225 71.6386H36.7144ZM34.0492 69.0411L32.6037 65.0207L31.113 69.0411H34.0492Z" fill="#011D47"/>
<path d="M36.4984 71.6386H36.8146C37.2663 71.6386 37.4922 71.5068 37.4922 71.2433V64.6367C37.4922 64.3732 37.2663 64.2415 36.8146 64.2415H36.4984V63.9817H39.333V64.2415H39.0168C38.7909 64.2415 38.6215 64.2753 38.5086 64.3431C38.4032 64.4033 38.3505 64.5012 38.3505 64.6367V71.0626C38.3505 71.3487 38.5763 71.4917 39.0281 71.4917H41.219C41.5201 71.4917 41.746 71.3148 41.8966 70.961C42.0547 70.5996 42.1525 70.2344 42.1902 69.8655H42.4499L42.2692 71.887H36.4984V71.6386Z" fill="#011D47"/>
<path d="M48.5718 71.9999C47.4123 71.9999 46.5202 71.6461 45.8953 70.9384C45.2704 70.2307 44.9579 69.2293 44.9579 67.9344C44.9579 67.0836 45.1047 66.3533 45.3984 65.7435C45.6995 65.1336 46.1287 64.6706 46.6858 64.3544C47.2505 64.0306 47.9205 63.8688 48.696 63.8688C49.1251 63.8688 49.5355 63.9365 49.927 64.0721C50.3185 64.2076 50.6196 64.3657 50.8304 64.5464C50.8605 64.5765 50.9019 64.5915 50.9546 64.5915C51.0224 64.5915 51.0563 64.5313 51.0563 64.4109V63.9252H51.4064V66.0258H51.1353C51.0751 65.4837 50.8304 65.0583 50.4013 64.7497C49.9721 64.4334 49.4489 64.2753 48.8315 64.2753C47.8678 64.2753 47.1225 64.6066 46.5954 65.2691C46.076 65.9317 45.8162 66.8201 45.8162 67.9344C45.8162 69.0637 46.0571 69.9596 46.539 70.6222C47.0208 71.2772 47.7474 71.6047 48.7186 71.6047C49.0724 71.6047 49.4338 71.5595 49.8027 71.4692C50.1716 71.3788 50.4841 71.2207 50.7401 70.9948V68.7136C50.7401 68.5028 50.646 68.3597 50.4577 68.2844C50.2771 68.2016 50.006 68.1565 49.6446 68.1489V67.9231H52.2308V68.1263H52.1404C51.9673 68.1263 51.8393 68.1527 51.7565 68.2054C51.6812 68.2581 51.6285 68.356 51.5984 68.499C51.5758 68.6345 51.5645 68.8453 51.5645 69.1314V71.0965C51.188 71.3901 50.7702 71.616 50.3109 71.7741C49.8517 71.9246 49.272 71.9999 48.5718 71.9999Z" fill="#011D47"/>
<path d="M57.3607 69.922C57.4661 70.2984 57.5639 70.5996 57.6543 70.8254C57.7446 71.0513 57.8726 71.2433 58.0383 71.4014C58.2114 71.5595 58.4298 71.6386 58.6933 71.6386V71.887H57.9366C57.6054 71.887 57.3381 71.7891 57.1348 71.5934C56.9391 71.3901 56.7885 71.1002 56.6831 70.7238L56.5476 70.193C56.4497 69.7865 56.3518 69.4552 56.2539 69.1992C56.1636 68.9432 56.0356 68.7399 55.87 68.5894H55.7006H53.8936V71.2433C53.8936 71.5068 54.1157 71.6386 54.5599 71.6386H54.8874V71.887H52.0528V71.6386H52.369C52.5949 71.6386 52.7605 71.6084 52.8659 71.5482C52.9789 71.4804 53.0353 71.3788 53.0353 71.2433V64.6367C53.0353 64.5012 52.9789 64.4033 52.8659 64.3431C52.7605 64.2753 52.5949 64.2415 52.369 64.2415H52.0528V63.9817H55.7006C56.5438 63.9817 57.1536 64.1812 57.5301 64.5803C57.9065 64.9793 58.0947 65.5477 58.0947 66.2855C58.0947 67.5127 57.5865 68.2506 56.5701 68.499C56.7809 68.612 56.9353 68.7814 57.0332 69.0072C57.1386 69.2256 57.2477 69.5305 57.3607 69.922ZM55.565 68.1941C56.6944 68.1941 57.259 67.5579 57.259 66.2855C57.259 65.0132 56.6944 64.377 55.565 64.377H53.8936V68.1941H55.565Z" fill="#011D47"/>
<path d="M62.7184 71.9999C61.5137 71.9999 60.5877 71.6461 59.9402 70.9384C59.2927 70.2307 58.969 69.2293 58.969 67.9344C58.969 66.6469 59.2927 65.6494 59.9402 64.9416C60.5877 64.2264 61.5137 63.8688 62.7184 63.8688C63.9154 63.8688 64.8377 64.2264 65.4852 64.9416C66.1327 65.6494 66.4564 66.6469 66.4564 67.9344C66.4564 69.2293 66.1327 70.2307 65.4852 70.9384C64.8377 71.6461 63.9154 71.9999 62.7184 71.9999ZM62.7071 71.5934C63.6632 71.5934 64.3822 71.2659 64.8641 70.6109C65.3535 69.9559 65.5981 69.0637 65.5981 67.9344C65.5981 66.805 65.3535 65.9129 64.8641 65.2579C64.3822 64.6028 63.6632 64.2753 62.7071 64.2753C61.766 64.2753 61.0507 64.6028 60.5613 65.2579C60.072 65.9129 59.8273 66.805 59.8273 67.9344C59.8273 69.0637 60.072 69.9559 60.5613 70.6109C61.0507 71.2659 61.766 71.5934 62.7071 71.5934Z" fill="#011D47"/>
<path d="M70.4459 71.9999C69.4972 71.9999 68.7745 71.8192 68.2776 71.4579C67.7807 71.0889 67.5322 70.4791 67.5322 69.6283V64.6367C67.5322 64.5012 67.4757 64.4033 67.3628 64.3431C67.2499 64.2753 67.1031 64.2415 66.9224 64.2415H66.6852V63.9817H69.2375V64.2415H69.0003C68.8196 64.2415 68.6728 64.2753 68.5599 64.3431C68.447 64.4033 68.3905 64.5012 68.3905 64.6367V69.6961C68.3905 70.4113 68.5862 70.9083 68.9777 71.1868C69.3768 71.4654 69.9301 71.6047 70.6379 71.6047C71.2552 71.6047 71.7672 71.4616 72.1737 71.1755C72.5878 70.8894 72.7949 70.3963 72.7949 69.6961V64.6367C72.7949 64.5012 72.7384 64.4033 72.6255 64.3431C72.5125 64.2753 72.3657 64.2415 72.185 64.2415H71.9592V63.9817H74.1388V64.2415H73.9016C73.7209 64.2415 73.5741 64.2753 73.4612 64.3431C73.3482 64.4033 73.2918 64.5012 73.2918 64.6367V69.6283C73.2918 70.464 73.0471 71.0701 72.5577 71.4466C72.0759 71.8155 71.3719 71.9999 70.4459 71.9999Z" fill="#011D47"/>
<path d="M74.2137 71.6386H74.5299C74.7558 71.6386 74.9214 71.6084 75.0268 71.5482C75.1397 71.4804 75.1962 71.3788 75.1962 71.2433V64.6367C75.1962 64.5012 75.1397 64.4033 75.0268 64.3431C74.9214 64.2753 74.7558 64.2415 74.5299 64.2415H74.2137V63.9817H77.9179C79.4989 63.9817 80.2895 64.7798 80.2895 66.3759C80.2895 67.1212 80.1012 67.7085 79.7248 68.1376C79.3484 68.5593 78.746 68.7701 77.9179 68.7701H76.0545V71.2433C76.0545 71.5068 76.2766 71.6386 76.7208 71.6386H77.0483V71.887H74.2137V71.6386ZM77.7824 68.3748C78.3545 68.3748 78.7762 68.1979 79.0472 67.844C79.3182 67.4902 79.4538 67.0008 79.4538 66.3759C79.4538 65.7435 79.3182 65.2541 79.0472 64.9078C78.7762 64.5539 78.3545 64.377 77.7824 64.377H76.0545V68.3748H77.7824Z" fill="#011D47"/>
</g>
<defs>
<clipPath id="clip0_401_2676">
<rect width="80" height="88" fill="white"/>
</clipPath>
</defs>
</svg>
