<svg width="1355" height="770" viewBox="0 0 1355 770" fill="none" xmlns="http://www.w3.org/2000/svg">
<g opacity="0.56" clip-path="url(#clip0_604_3264)">
<path d="M1319.6 185.274L1319.2 185.004V185.41L1319.6 185.274V185.274ZM1315.54 181.62L1316.49 181.213V180.672L1315.54 181.62ZM1332.33 171.061L1332.19 169.166L1331.92 168.083L1332.33 171.061H1332.33ZM1273.17 157.118L1272.23 157.524L1264.51 159.826L1261.8 160.773L1258.69 161.721L1257.61 162.127V162.533L1258.01 169.572L1258.42 176.07L1258.82 182.026L1259.5 182.432L1261.94 181.755L1272.9 178.506L1273.17 179.183L1292.67 171.738L1292.8 172.009L1294.56 171.332L1300.79 168.895L1306.74 176.07L1307.56 175.393L1307.96 173.362L1307.83 176.611H1309.18L1309.59 178.235L1310.8 180.537L1317.17 172.821L1322.45 174.581L1323.66 171.873L1332.33 167.271L1328.67 160.096L1329.62 164.699L1325.15 168.083L1320.14 168.489L1310.13 157.795L1305.66 151.027L1310.13 146.289L1305.53 146.018L1303.63 141.551L1303.49 141.281L1295.78 149.673L1278.72 155.359L1273.17 157.118V157.118Z" fill="#BED4FF" stroke="#F0F5FF" stroke-width="2.1824" stroke-linejoin="round"/>
<path d="M764.873 74.8151L767.581 84.4261L773.266 119.08L775.973 132.887L776.786 145.07L779.899 152.38L780.576 158.607L781.117 160.637L780.982 161.043L775.567 169.977L779.087 175.934L785.855 223.582L786.126 229.809L792.894 229.403L819.561 227.914L886.161 222.364L892.794 221.687V221.01L890.899 210.587L882.642 206.391L876.144 199.623L865.856 193.396L862.608 193.125L857.599 189.335L858.953 170.654L854.215 166.323L855.839 158.742L864.503 150.891L863.014 134.647L866.127 131.127L876.686 120.027L888.733 104.596L893.336 101.347L901.458 97.4212L909.986 91.059L904.3 92.142L900.916 89.57L887.921 91.3298L885.891 88.8932L874.249 93.631L864.909 89.7054L862.337 86.592L854.892 87.1334L849.883 84.5615L851.508 82.6663L845.145 80.6359H839.46L830.39 84.5615L828.631 81.8541L814.282 79.8237L809.409 67.6407L808.867 63.9858L802.64 62.2261L803.182 72.6493L786.667 73.8676L766.227 74.6797L764.873 74.8151L764.873 74.8151Z" fill="#BED4FF" stroke="#F0F5FF" stroke-width="2.1824" stroke-linejoin="round"/>
<path d="M635.328 73.5974L590.522 70.6194L557.898 67.506L525.41 63.7157L505.241 61.0084L473.024 55.9998L456.915 53.2925L420.908 46.3889L417.118 45.5767L411.297 73.1913L413.869 78.1999L415.899 85.9157L414.681 86.9987L417.253 94.0377L420.773 97.0158L430.79 113.801L431.737 116.644L435.798 116.373L431.06 138.573L429.165 139.115L426.593 146.56L439.994 147.507L441.077 153.734L448.658 172.279L450.012 173.362L455.291 184.191L456.644 183.109L467.88 182.973L482.093 184.462L485.613 179.86L489.809 187.44L490.621 187.846L490.757 187.034L492.652 173.768L538.947 179.454L575.902 182.973L595.395 184.598L630.184 186.628L631.944 186.763H632.35L632.485 184.868L632.891 175.528L633.433 163.21L633.568 160.096L633.839 154.682L636.005 112.177L637.764 79.1475L637.9 73.7328L635.328 73.5975L635.328 73.5974Z" fill="#BED4FF" stroke="#F0F5FF" stroke-width="2.1824" stroke-linejoin="round"/>
<path d="M762.031 74.8153L721.15 75.6275L692.588 75.4922L668.087 74.9507L639.389 73.8678L637.9 73.7324L637.765 79.1471L636.005 112.176L633.839 154.681L633.568 160.096L638.848 160.367L698.544 161.991L753.638 161.585L776.515 160.908L781.117 160.637L780.576 158.607L779.899 152.38L776.786 145.07L775.973 132.887L773.266 119.08L767.581 84.4263L764.873 74.8154H762.031L762.031 74.8153Z" fill="#BED4FF" stroke="#F0F5FF" stroke-width="2.1824" stroke-linejoin="round"/>
<path d="M566.562 690.054L562.366 686.94L558.711 687.888L559.523 695.469L554.514 701.695L558.846 711.577L560.064 721.73L565.073 724.978L568.186 719.97L573.736 715.909L580.505 714.149L587.95 707.787L580.64 701.56L580.505 697.77L566.562 690.054H566.562ZM541.925 679.089L539.895 677.329L538 679.901L541.925 679.089ZM531.773 673.269L532.314 668.26L529.742 667.854L531.773 673.269ZM540.301 665.011L538 666.094L539.624 671.238L543.144 671.509L544.227 675.976L548.017 677.6L556.409 673.675L548.558 667.177L540.301 665.011V665.011ZM522.974 659.461L521.756 663.116L527.577 662.981L532.991 664.334L530.149 659.867L522.974 659.461V659.461ZM505.918 648.767L502.805 645.789L496.848 650.392L500.639 657.431L503.346 654.588L511.062 656.212L510.385 652.964L505.918 648.767V648.767ZM445.274 642.811L446.086 640.916L448.387 639.698L445.274 642.811V642.811ZM466.797 630.493L457.322 634.012L456.374 636.584L460.164 639.292L465.444 640.645L469.234 633.2L466.797 630.493V630.493ZM401.145 605.585V605.45H400.874L401.145 605.585ZM329.401 587.853V588.123H329.536L329.401 587.853ZM291.769 581.626L291.904 581.761L291.769 581.626ZM289.062 577.565H288.791V577.7L289.062 577.565ZM290.009 577.565H289.874H290.009ZM289.874 577.429V577.565V577.429ZM247.369 542.505L247.233 542.099V542.234L247.369 542.505V542.505ZM154.643 512.86L154.237 513.266L154.508 513.401L154.643 512.86L154.643 512.86ZM59.8868 444.635H59.7515H59.8868ZM1.40869 419.186L1.81479 419.051V418.78L1.40869 419.186V419.186Z" fill="#BED4FF" stroke="#F0F5FF" stroke-width="2.1824" stroke-linejoin="round"/>
<path d="M416.982 45.5774L404.934 43.1408L401.009 42.1932L399.249 41.7871L383.547 112.448L384.223 118.269L383.682 124.36L383.953 125.714V125.849L384.088 128.421L388.691 133.43L382.058 150.08L367.98 168.49L367.573 171.874L371.228 180.537L358.369 233.872L357.827 236.714L361.617 237.526L399.926 245.107L415.222 247.95L419.148 248.626L422.938 249.303L442.431 252.417L477.355 257.696L481.281 258.237L481.822 253.77L483.041 244.972L487.643 209.776L490.08 192.314L490.621 187.847L489.809 187.441L485.613 179.861L482.093 184.463L467.88 182.974L456.644 183.109L455.291 184.192L450.011 173.363L448.658 172.28L441.077 153.735L439.994 147.508L426.593 146.56L429.165 139.115L431.06 138.574L435.798 116.374L431.737 116.645L430.789 113.802L420.772 97.0165L417.253 94.0385L414.681 86.9994L415.899 85.9165L413.869 78.2007L411.297 73.1921L417.117 45.5774H416.982V45.5774Z" fill="#BED4FF" stroke="#F0F5FF" stroke-width="2.1824" stroke-linejoin="round"/>
<path d="M253.866 79.2839L254.001 76.9827L253.731 77.118L253.866 79.2839H253.866ZM282.699 66.9656L283.511 65.6119L282.564 65.4765L282.699 66.9656H282.699ZM280.127 64.529L280.939 61.8217L280.127 61.5509V64.529V64.529ZM290.009 60.6034L289.873 57.896L287.572 61.4156L290.009 60.6034H290.009ZM290.279 54.918L290.686 52.2107L290.415 51.5338L290.279 54.918H290.279ZM290.686 41.6521L290.55 40.1631L290.009 40.0277L290.686 41.6521H290.686ZM295.017 32.718L293.799 32.5826L291.362 36.3728L295.017 32.718V32.718ZM291.633 29.0631L292.31 28.5216L292.445 28.1155L291.633 29.0631H291.633ZM290.956 29.4692L290.55 26.7618L289.332 29.0631L290.956 29.4692ZM290.279 25.6789L289.061 25.1375L290.009 26.4911L290.279 25.6789V25.6789ZM294.34 27.9801V26.2204L293.934 26.8972L294.34 27.9801ZM295.559 26.2204L295.017 25.8143H294.882L295.559 26.2204H295.559ZM287.843 23.2423L287.166 22.7009L286.895 22.5655L287.843 23.2423V23.2423ZM292.851 22.7009L289.197 23.6484L290.144 23.9192L292.851 22.7009ZM289.873 22.4301L289.197 21.6179L289.061 21.7533L289.873 22.4301H289.873ZM292.716 20.8057H292.175L292.851 21.0765L292.716 20.8057H292.716ZM266.184 90.2485L271.058 95.5278L270.245 105.68L271.193 108.252L278.503 112.178L299.078 114.073L299.89 116.51L309.637 116.645L318.842 117.863L333.867 116.239L341.312 117.457L343.343 116.51L381.381 125.173L383.953 125.714L383.682 124.361L384.223 118.269L383.547 112.449L399.249 41.7875L397.083 41.3814L365.408 33.9363L337.793 26.8973L306.523 18.2338L297.183 15.9326L299.349 27.7095L297.319 31.4997L293.664 29.6046L297.183 45.9839L293.393 51.3985L291.633 56.4071V61.551L283.647 67.101L280.262 64.9351L277.014 66.5595L282.97 58.8437L281.481 64.1229L284.865 60.468L287.572 61.0095L286.76 54.2412L288.52 54.5119L292.175 46.39L290.956 45.1717L286.218 51.2632L283.105 51.3985L286.489 47.6083L290.279 46.6607L288.926 39.757L285.136 38.8095L283.24 35.5607L280.939 36.779L268.486 31.3643L257.521 22.8363L254.543 31.0936L254.272 34.6131L256.573 40.84L255.084 61.0095L254.001 64.1229L260.093 64.6644L254.001 68.9961L257.25 70.6205L254.678 79.2839L253.46 72.5156L251.159 80.3669L254.272 84.1571L257.656 83.8864L261.717 86.323L263.748 90.2486H266.184V90.2485Z" fill="#BED4FF" stroke="#F0F5FF" stroke-width="2.1824" stroke-linejoin="round"/>
<path d="M504.97 404.025L459.352 398.34L434.851 394.821L399.926 389.27L396.407 388.729V389L390.451 415.261L387.337 415.125L382.599 410.929L376.643 415.938L376.508 437.461L374.342 442.063V442.469V442.605L374.071 445.989L378.809 458.713L383.006 464.399L375.425 468.866L372.447 474.416L367.574 486.328L365.137 486.869L365.002 496.751L369.198 499.865L367.032 505.821L362.159 506.091L359.316 511.371L369.063 517.462L387.473 527.75L444.326 557.937L492.517 563.893H493.058L496.848 523.96L497.796 514.078L507.948 409.305L508.49 404.431L504.97 404.025H504.97Z" fill="#BED4FF" stroke="#F0F5FF" stroke-width="2.1824" stroke-linejoin="round"/>
<path d="M273.224 479.152L273.765 482.13V482.672L273.224 479.152ZM253.325 467.511L254.272 469.541L254.814 469.406L253.325 467.511V467.511ZM277.014 467.105L277.42 470.624L279.856 472.384L277.014 467.105ZM260.635 447.883L259.145 447.476L260.364 448.018L260.635 447.883V447.883ZM245.609 443.822L241.954 445.987L242.902 446.935L245.609 443.822V443.822ZM238.57 441.25L238.299 442.333L239.517 442.603L238.57 441.25V441.25ZM250.482 443.957L256.438 447.341L257.521 446.394L250.482 443.957ZM204.322 324.699L204.187 324.835L204.322 324.699ZM218.806 325.376L218.671 324.97V325.512L218.806 325.376V325.376ZM296.913 222.634L291.633 221.28L233.697 205.307L212.173 198.809V199.351L210.955 212.752L205.27 228.59L195.794 240.366L195.523 246.323L200.126 254.58L202.427 265.409L199.178 274.208L199.72 283.007L198.095 286.662L203.645 298.709L207.165 303.312L206.894 316.442L215.287 324.429L220.16 316.307L225.439 320.503L227.47 318.608L220.16 319.962L220.025 326.865L221.514 335.529L217.453 331.603L215.151 326.324L214.475 333.634L216.37 348.118L223.95 357.458L218.942 363.956L219.754 372.213L225.169 380.606L234.644 406.596L237.622 408.22L236.675 426.224L238.164 428.39L258.469 435.7L264.695 442.333L266.861 446.664L272.817 450.048L279.315 451.267L282.022 458.712L287.437 461.284L295.559 470.895L303.139 483.484L302.598 495.125L306.794 500.675L362.159 506.09L367.032 505.819L369.198 499.863L365.002 496.75L365.137 486.868L367.574 486.326L372.447 474.414L375.425 468.864L383.005 464.397L378.809 458.712L374.071 445.987L374.342 442.603V442.468L370.822 437.73L359.993 423.246L339.011 393.736L309.772 351.773L293.258 328.896L277.285 305.884L295.694 227.777L296.913 222.633L296.913 222.634Z" fill="#BED4FF" stroke="#F0F5FF" stroke-width="2.1824" stroke-linejoin="round"/>
<path d="M668.763 328.219L669.305 301.688L662.807 301.417L629.778 300.199L626.529 300.063L623.822 299.928L583.618 297.356L556.815 295.19L523.38 291.941L520.131 291.535L519.725 295.055L512.415 365.58L509.843 390.217L508.76 400.911L508.49 404.43L512.686 404.837L580.911 410.793L610.962 412.688L640.878 414.041L645.209 414.177L647.917 414.312L653.602 414.448L656.309 414.583L664.838 414.854H667.003V412.146L668.492 340.538L668.628 332.551V329.979L668.763 328.22L668.763 328.219Z" fill="#BED4FF" stroke="#F0F5FF" stroke-width="2.1824" stroke-linejoin="round"/>
<path d="M397.084 384.397L411.162 296.815L418.336 252.957L419.148 248.625L415.223 247.948L399.926 245.105L361.618 237.525L357.827 236.713L354.037 235.901L334.951 231.704L300.703 223.582L296.913 222.635L295.694 227.779L277.285 305.885L293.258 328.897L309.773 351.774L339.012 393.737L359.993 423.247L370.823 437.731L374.342 442.469V442.063L376.508 437.461L376.643 415.937L382.599 410.929L387.337 415.125L390.451 415.261L396.407 389V388.729L397.084 384.397L397.084 384.397Z" fill="#BED4FF" stroke="#F0F5FF" stroke-width="2.1824" stroke-linejoin="round"/>
<path d="M644.804 424.735L644.939 421.215L645.075 417.696L645.21 414.176L640.878 414.041L610.962 412.687L580.911 410.792L512.687 404.836L508.49 404.43L507.949 409.303L497.796 514.076L496.849 523.958L493.059 563.891L493.6 564.026L512.281 565.786L514.04 556.31L517.424 553.603L555.327 556.987H555.598L552.214 550.354L569.405 551.573L612.316 554.009L639.119 555.228L643.721 428.254L644.669 428.39L644.804 424.735L644.804 424.735Z" fill="#BED4FF" stroke="#F0F5FF" stroke-width="2.1824" stroke-linejoin="round"/>
<path d="M212.174 198.809L233.697 205.307L291.634 221.28L296.913 222.634L300.703 223.581L334.951 231.703L354.037 235.899L357.828 236.712L358.369 233.869L371.229 180.535L367.574 171.871L367.98 168.487L382.058 150.077L388.691 133.427L384.089 128.419L383.953 125.847V125.711L381.381 125.17L343.343 116.507L341.313 117.454L333.868 116.236L318.842 117.86L309.637 116.642L299.891 116.506L299.079 114.07L278.503 112.175L271.193 108.249L270.246 105.677L271.058 95.5247L266.185 90.2455L265.779 90.3808L264.831 91.0577L258.063 87.5381L254.002 88.7564L251.295 87.4028L248.452 99.0443L246.557 102.293L238.164 122.733L235.727 133.969L234.238 134.104L226.387 152.785L221.108 160.771L219.213 162.125L214.34 171.6L213.392 181.618L210.414 190.552L212.174 198.674V198.809L212.174 198.809ZM261.718 87.6736L261.312 86.4553L261.176 87.4029L261.718 87.6736H261.718Z" fill="#BED4FF" stroke="#F0F5FF" stroke-width="2.1824" stroke-linejoin="round"/>
<path d="M477.356 257.694L442.431 252.415L422.939 249.301L419.148 248.625L418.336 252.956L411.162 296.815L397.084 384.397L396.407 388.728L399.926 389.27L434.851 394.82L459.352 398.339L504.97 404.025L508.49 404.431L508.761 400.911L509.843 390.217L512.415 365.581L519.725 295.055L520.131 291.536L517.424 291.265L482.906 287.068L477.626 286.392L481.011 259.995L481.281 258.235L477.356 257.694V257.694Z" fill="#BED4FF" stroke="#F0F5FF" stroke-width="2.1824" stroke-linejoin="round"/>
<path d="M629.372 239.828L630.455 218.711L631.808 190.284L631.944 186.765L630.184 186.629L595.395 184.599L575.902 182.974L538.947 179.455L492.652 173.77L490.757 187.035L490.622 187.848L490.08 192.315L487.644 209.777L483.041 244.972L481.823 253.771L481.281 258.238L481.011 259.998L477.626 286.394L482.906 287.071L517.424 291.267L520.131 291.538L523.38 291.944L556.816 295.193L583.618 297.359L623.822 299.931L626.529 300.066L626.664 296.547L627.341 282.333L628.56 257.561L629.101 247.003L629.236 243.483L629.372 239.828H629.372Z" fill="#BED4FF" stroke="#F0F5FF" stroke-width="2.1824" stroke-linejoin="round"/>
<path d="M948.835 429.338L934.216 431.504L940.172 422.028L937.6 416.749L886.026 421.758L842.438 425.277L836.075 425.683L836.888 429.473L842.167 456.817L842.302 462.909L843.791 499.728L843.927 505.82L844.333 505.955L846.363 508.121L854.485 507.85L855.298 519.763L855.568 523.147L859.765 522.741L872.624 521.793L923.657 517.055H923.928L923.793 514.077L925.146 513.13L922.71 508.527L927.854 486.869L925.823 484.432L933.539 475.904L932.998 468.594L938.683 459.119V458.983L938.412 458.712L943.285 454.245L941.932 448.831L945.722 442.875L944.91 437.325L948.971 429.473V429.338H948.835V429.338Z" fill="#BED4FF" stroke="#F0F5FF" stroke-width="2.1824" stroke-linejoin="round"/>
<path d="M908.496 247.544L901.051 243.618L896.99 238.068L895.636 230.082L896.719 226.427L892.794 221.689L886.161 222.366L819.561 227.916L792.893 229.405L786.125 229.811L783.282 229.946L785.584 244.972L783.689 252.146L786.667 256.613V257.561L787.614 257.696L791.946 270.421L796.142 277.054L796.413 284.634L801.015 290.996L800.203 293.704L804.4 310.76V311.166L832.15 310.354L861.795 307.782L890.899 304.127L897.531 309.948L897.802 310.218L899.02 309.677L898.073 304.398L903.081 301.284L905.112 287.477L903.081 286.529L904.3 279.49L910.391 278.272L917.159 273.399L920.138 264.871L920.273 260.539L914.858 255.395L913.234 252.146L908.09 248.898L908.361 248.221L908.496 247.544L908.496 247.544Z" fill="#BED4FF" stroke="#F0F5FF" stroke-width="2.1824" stroke-linejoin="round"/>
<path d="M835.128 407.952L831.744 350.692L825.652 347.172L825.111 344.465L820.238 340.133L824.976 334.313L823.08 330.928L819.561 331.064L816.312 328.763L814.959 327.68L810.356 327.95L760.406 329.846L737.529 330.387H692.046L673.772 330.116L668.628 329.981V332.553L668.492 340.539L667.003 412.148V414.855L672.824 414.991L704.229 415.397L777.733 414.314L830.119 411.877L835.263 411.471L835.128 407.952L835.128 407.952Z" fill="#BED4FF" stroke="#F0F5FF" stroke-width="2.1824" stroke-linejoin="round"/>
<path d="M897.532 309.945L890.899 304.125L861.795 307.779L832.15 310.351L804.4 311.164L804.265 311.976L807.649 318.473L810.762 320.639L814.417 327.137L814.959 327.678L816.312 328.761L819.561 331.062L823.081 330.927L824.976 334.311L820.238 340.132L825.111 344.464L825.652 347.171L831.744 350.69L835.128 407.95L835.264 411.47L835.534 414.989L835.67 418.509L835.94 422.164L836.076 425.683L842.438 425.277L886.026 421.758L937.6 416.749L940.172 422.028L934.216 431.504L948.836 429.338H948.971V428.255L949.242 422.028L951.949 418.644L951.137 414.854L951.002 414.718L950.866 414.583L951.408 412.823L952.22 413.094L952.626 414.177L952.49 414.583V414.718V415.801L953.032 415.937L954.115 414.583V414.448L954.25 414.042L957.77 411.876L958.311 411.605L959.53 400.505L959.259 399.964L958.853 399.828L949.242 391.977L950.731 389.134L948.024 381.418L943.15 377.628L933.945 373.567L928.125 368.829L928.802 359.083L930.561 350.013L920.815 350.555L917.837 347.442L916.483 341.215L901.051 328.22L896.72 316.172L897.803 310.216L897.532 309.945V309.945Z" fill="#BED4FF" stroke="#F0F5FF" stroke-width="2.1824" stroke-linejoin="round"/>
<path d="M784.095 257.289L779.899 253.093L765.144 248.761L760.406 248.625L753.232 250.656L744.703 245.241L718.036 245.512L679.186 245.106L633.297 243.617L629.236 243.481L629.101 247.001L628.559 257.56L627.341 282.332L626.664 296.545L626.529 300.064L629.778 300.2L662.807 301.418L669.304 301.689L668.763 328.221L668.628 329.98L673.771 330.116L692.046 330.387H737.529L760.406 329.845L810.356 327.95L814.958 327.679L814.417 327.138L810.762 320.64L807.648 318.474L804.264 311.977L804.4 311.165V310.758L800.203 293.702L801.016 290.995L796.413 284.633L796.142 277.052L791.946 270.419L787.614 257.695L786.667 257.56L784.095 257.289L784.095 257.289Z" fill="#BED4FF" stroke="#F0F5FF" stroke-width="2.1824" stroke-linejoin="round"/>
<path d="M835.94 422.165L835.67 418.51L835.534 414.991L835.264 411.471L830.12 411.877L777.733 414.314L704.229 415.397L672.824 414.991L667.004 414.855H664.838L656.31 414.585L653.602 414.449L647.917 414.314L645.21 414.178L645.074 417.698L644.939 421.217L644.803 424.737L644.668 428.392H645.48L678.239 429.204L712.892 429.61L713.299 475.905L715.735 484.027L721.15 489.171L726.971 489.442L728.189 487.005L736.175 494.315L746.599 495.398L748.494 497.564L752.284 495.804L761.76 500.271V502.843L765.279 502.708L768.934 499.594L775.702 503.926L782.065 506.227L786.396 500.271L800.203 506.769L805.347 502.572L809.544 500.948L812.928 501.76L825.652 498.105L832.421 500.948L838.512 504.873L843.791 505.821H843.927L843.791 499.73L842.302 462.91L842.167 456.819L836.888 429.475L836.076 425.684L835.94 422.165L835.94 422.165Z" fill="#BED4FF" stroke="#F0F5FF" stroke-width="2.1824" stroke-linejoin="round"/>
<path d="M776.514 160.908L753.637 161.585L698.543 161.991L638.847 160.367L633.567 160.096L633.432 163.21L632.89 175.528L632.484 184.868L632.349 186.763H631.943L631.807 190.283L630.454 218.71L629.371 239.827L629.235 243.482L633.296 243.617L679.185 245.106L718.035 245.512L744.703 245.241L753.231 250.656L760.405 248.626L765.143 248.761L779.898 253.093L784.094 257.289L786.666 257.56V256.612L783.688 252.145L785.583 244.971L783.282 229.945L786.125 229.81L785.854 223.583L779.086 175.934L775.566 169.978L780.981 161.044L781.116 160.638L776.514 160.908L776.514 160.908Z" fill="#BED4FF" stroke="#F0F5FF" stroke-width="2.1824" stroke-linejoin="round"/>
<path d="M946.805 626.298L945.045 626.704L944.233 627.516L946.805 626.298V626.298ZM952.49 626.298L951.543 625.891L951.272 626.298H952.49ZM955.739 625.215H954.791L954.25 625.891L955.739 625.215ZM954.115 624.267L953.844 623.861L953.708 624.267H954.115V624.267ZM964.944 617.093L964.538 617.363H965.215L964.944 617.093ZM983.895 609.106L984.707 608.023L983.76 609.241L983.895 609.106V609.106ZM986.602 605.587L986.332 605.722V605.857L986.602 605.587V605.587ZM917.024 617.499L919.055 614.927L913.505 613.438L911.068 615.468L917.024 617.499V617.499ZM973.201 605.722L972.66 605.18L972.524 605.451L973.201 605.722V605.722ZM974.69 603.285L973.337 602.879L973.743 604.233L974.69 603.285V603.285ZM985.79 600.984V600.578V600.713V600.984V600.984ZM988.498 599.224L988.362 599.089L988.498 599.36V599.224V599.224ZM987.415 598.954L987.144 598.818L987.008 599.224L987.415 598.954L987.415 598.954ZM977.939 598.547L979.157 598.141V597.735L977.939 598.547V598.547ZM978.616 597.871L979.293 597.194L979.157 597.058L978.616 597.871L978.616 597.871ZM973.878 592.862L973.607 593.133H973.743L973.878 592.862H973.878ZM923.928 517.057H923.657L872.624 521.795L859.764 522.743L855.568 523.149L855.704 526.397L858.411 552.523L862.878 558.75L863.013 562.405L867.345 569.985L870.865 581.085L869.646 587.312L868.699 602.744L866.668 607.752H866.939L867.345 611.272L865.044 614.521L881.829 612.626L894.96 616.28L904.3 617.499L909.038 614.115L906.466 610.73L915.129 608.023L914.859 611.001L919.326 609.918L922.981 615.604L926.094 614.521L934.216 620.071L929.207 621.83L940.713 625.215H945.045L947.617 622.101L953.167 619.123L957.093 624.809L959.8 619.665L958.988 611.543L966.298 614.385L967.11 616.822L975.773 617.905L980.105 621.424L979.564 624.267L985.655 618.582L983.354 615.604L973.201 613.032L969.411 610.866L969.276 606.805L973.472 607.346L976.721 600.713L972.524 594.893L970.223 600.443L964.944 599.495L968.599 593.539L966.162 592.862L960.206 597.058L951.678 597.6L949.241 595.705L953.167 588.801L957.77 588.666L965.621 591.238L971.306 591.779L968.193 587.854L962.237 576.212L963.861 569.714L917.16 574.858L918.92 573.099L917.024 568.225L919.867 564.029L921.491 553.471L931.779 535.873L926.771 529.782L927.041 525.314L923.928 518.005V517.057H923.928Z" fill="#BED4FF" stroke="#F0F5FF" stroke-width="2.1824" stroke-linejoin="round"/>
<path d="M786.397 720.647L779.899 696.146V700.748L786.397 720.647V720.647ZM784.908 677.601L780.305 686.264L779.764 689.107L784.908 677.601V677.601ZM788.562 671.238L792.894 665.553L789.781 667.448L788.562 671.238V671.238ZM803.859 657.431L793.706 662.71L796.549 662.169L803.859 657.431ZM805.212 655.536L808.055 653.235L806.972 653.505L805.212 655.536V655.536ZM644.668 428.392L643.721 428.256L639.118 555.23L612.316 554.011L569.405 551.575L552.213 550.357L555.598 556.989L555.733 557.125L570.352 571.744L578.745 581.626L589.845 589.883L597.696 604.232L600.674 619.258L607.037 623.454L612.045 629.004L619.22 631.576L629.643 638.209L634.381 639.969L640.878 633.471L642.909 626.568L646.293 619.935L656.851 615.738L660.912 617.769L672.689 618.716L683.383 625.349L690.693 626.703L688.662 630.493L692.859 633.201L696.784 637.938L697.597 642.947L700.168 646.331L706.125 660.68L712.081 665.688L716.683 673.269L722.504 679.225L725.076 680.037L727.242 695.469L733.604 698.988L733.875 703.862L735.499 703.456L746.599 716.992L752.149 718.21L759.188 722.407H770.017L777.869 726.739L787.209 724.708L783.013 720.782L779.222 709.412L777.733 699.53L775.567 696.281L776.515 689.648L773.672 689.377L769.882 683.151L774.214 687.753L779.222 685.993L781.93 678.819L776.515 671.509L784.637 672.457L788.427 666.636L787.886 664.605L791.27 660.138L790.458 664.064L794.248 661.086L792.759 655.807L797.632 658.379L803.859 654.859L797.767 648.497L801.558 649.986L808.597 650.392L817.802 648.362L828.089 641.458L834.316 636.314L835.264 632.524L839.054 628.598L837.023 622.101L837.43 618.04L844.198 615.062L843.656 622.236H847.717L843.25 626.026L861.254 616.551L864.232 616.415L866.127 607.752H866.669L868.699 602.743L869.647 587.311L870.865 581.085L867.345 569.985L863.014 562.404L862.878 558.749L858.411 552.522L855.704 526.397L855.569 523.148L855.298 519.764L854.486 507.852L846.364 508.122L844.333 505.956L843.927 505.821H843.792L838.512 504.873L832.421 500.948L825.653 498.105L812.928 501.76L809.544 500.948L805.348 502.572L800.204 506.769L786.396 500.271L782.065 506.227L775.703 503.926L768.934 499.594L765.279 502.708L761.76 502.843V500.271L752.284 495.804L748.494 497.564L746.599 495.398L736.176 494.315L728.189 487.005L726.971 489.442L721.15 489.171L715.735 484.027L713.299 475.905L712.893 429.61L678.239 429.204L645.48 428.392H644.668L644.668 428.392Z" fill="#BED4FF" stroke="#F0F5FF" stroke-width="2.1824" stroke-linejoin="round"/>
<path d="M1292.67 171.737L1273.17 179.182L1272.9 178.506L1261.94 181.754L1259.5 182.431L1259.77 183.785L1264.92 203.684L1266.54 205.714L1263.02 210.046L1265.46 212.347L1273.31 204.767L1277.5 198.946L1278.32 200.57L1298.08 191.771L1298.49 191.365L1298.35 188.117L1297.54 185.274L1293.34 173.497L1292.8 172.008L1292.67 171.737H1292.67Z" fill="#BED4FF" stroke="#F0F5FF" stroke-width="2.1824" stroke-linejoin="round"/>
<path d="M1274.39 77.7915L1272.63 79.9574L1270.6 79.5513L1269.52 88.4854V88.6208L1272.77 100.804L1272.5 103.24L1266.68 110.956L1268.16 117.995V126.794L1267.08 134.916L1273.17 157.116L1278.72 155.356L1295.78 149.671L1303.49 141.278V139.112L1303.9 135.593L1302.95 135.999L1302.82 135.187L1294.29 124.764L1294.02 123.816L1274.39 77.7915H1274.39Z" fill="#BED4FF" stroke="#F0F5FF" stroke-width="2.1824" stroke-linejoin="round"/>
<path d="M1305.93 183.921L1305.8 181.078L1305.39 182.161L1305.93 183.921H1305.93ZM1308.64 181.755L1306.88 178.371L1306.74 181.891L1308.64 181.755V181.755ZM1307.83 177.559L1308.77 179.996L1309.99 182.161L1310.8 180.537L1309.59 178.236L1309.18 176.611H1307.83V177.559V177.559ZM1292.8 172.009L1293.34 173.498L1297.54 185.275L1298.35 188.118L1298.49 191.366L1298.76 190.96L1305.25 185.816L1304.04 176.611L1306.74 176.07L1300.79 168.896L1294.56 171.332L1292.8 172.009H1292.8Z" fill="#BED4FF" stroke="#F0F5FF" stroke-width="2.1824" stroke-linejoin="round"/>
<path d="M1273.17 157.118L1267.08 134.918L1268.16 126.796V117.997L1266.67 110.958L1272.5 103.242L1272.77 100.805L1269.52 88.6226L1267.76 89.2994L1260.31 92.0067L1253 94.8494L1236.22 100.941L1235.27 101.212L1241.36 115.425L1243.39 128.826L1250.57 140.062L1257.33 162.262L1257.61 162.126L1258.69 161.72L1261.8 160.773L1264.51 159.825L1272.22 157.524L1273.17 157.118V157.118Z" fill="#BED4FF" stroke="#F0F5FF" stroke-width="2.1824" stroke-linejoin="round"/>
<path d="M987.685 452.756L988.227 453.838L990.122 455.057L990.934 510.557L991.205 541.014L998.109 582.707L998.65 582.571L1004.74 583.79L1006.37 571.742L1009.07 578.51L1013.68 582.707L1022.47 577.563L1021.53 576.751L1021.8 576.886L1015.71 562.943L1074.18 553.468L1078.11 552.791V552.656L1074.46 545.752L1074.18 535.87L1071.21 530.456L1072.7 519.897L1075.13 517.19L1065.11 499.321L1046.98 444.092L1046.84 443.821L1042.78 444.498L1021.12 448.018L1010.29 449.371L987.55 452.485L987.685 452.755V452.756Z" fill="#BED4FF" stroke="#F0F5FF" stroke-width="2.1824" stroke-linejoin="round"/>
<path d="M1177.87 718.345H1177.6L1177.74 718.481L1177.87 718.345H1177.87ZM1176.66 718.21V718.345H1176.79L1176.66 718.21ZM1176.93 718.075V717.939V718.075ZM1158.52 720.105V720.241V720.105ZM1158.25 720.241V720.105V720.241ZM1157.03 720.241H1156.89V720.376L1157.03 720.241ZM1195.47 711.712H1195.34L1195.47 711.983V711.712ZM1199.13 710.765V710.494L1198.86 710.9L1199.13 710.765V710.765ZM1197.77 710.494L1197.23 709.953L1197.1 710.088L1197.77 710.494L1197.77 710.494ZM1197.37 711.577L1195.74 709.547L1196.69 711.306L1197.37 711.577V711.577ZM1210.23 703.59V704.132L1210.5 703.861L1210.23 703.59ZM1212.12 702.237L1212.53 701.56L1211.99 702.101L1212.12 702.237V702.237ZM1212.53 700.883H1212.39V701.019L1212.53 700.883ZM1210.09 700.477L1209.96 700.342L1210.09 700.477ZM1211.31 698.447L1211.17 698.311V698.582L1211.31 698.446V698.447ZM1207.66 698.311L1207.52 698.176L1207.66 698.311ZM1212.26 695.198L1211.99 695.333L1212.39 695.469L1212.26 695.198V695.198ZM1212.8 695.198L1212.53 694.927L1212.66 695.333L1212.8 695.198L1212.8 695.198ZM1211.85 694.927L1211.72 694.792V695.062L1211.85 694.927V694.927ZM1216.86 693.979V693.844L1216.59 694.385L1216.86 693.979V693.979ZM1211.17 694.521H1210.9L1211.17 694.656V694.521ZM1214.02 692.897H1213.61L1213.48 693.032L1214.02 692.897H1214.02ZM1215.1 692.22H1214.96H1215.1ZM1203.73 692.761V692.49L1203.59 692.761H1203.73ZM1204.95 692.355H1204.54L1204.95 693.167V692.355ZM1201.7 692.49V691.678L1201.02 691.814L1201.7 692.49V692.49ZM1199.8 691.137L1200.48 691.814V691.543L1199.8 691.137ZM1219.7 691.949L1217.27 693.032L1218.08 693.167L1219.7 691.949V691.949ZM1200.75 690.731H1199.94V691.001L1200.75 690.731ZM1222.14 683.962L1222.27 683.286L1222.41 681.526L1222.14 683.962H1222.14ZM1222.27 676.382L1221.73 675.028L1221.46 675.57L1222.27 676.382ZM1191.01 679.766L1190.73 680.172L1191.41 680.308L1191.01 679.766V679.766ZM1188.43 678.548L1187.22 678.954L1188.16 679.089L1188.43 678.548V678.548ZM1185.73 678.818V678.412L1185.59 678.548L1185.73 678.819V678.818ZM1182.88 678.683L1182.07 679.225L1183.15 679.766L1182.88 678.683V678.683ZM1186.67 678.818L1186.54 678.412L1185.86 678.277L1186.67 678.818V678.818ZM1168.94 665.553L1168.13 665.959L1169.75 666.5L1168.94 665.553V665.553ZM1165.69 661.221L1164.61 659.597L1165.02 660.815L1165.69 661.221V661.221ZM1169.89 663.928L1167.99 659.597L1166.64 659.19L1169.89 663.928ZM1164.47 658.514L1164.07 657.431L1163.8 656.754L1164.47 658.514ZM1153.24 643.488L1150.8 641.728L1151.75 642.676L1153.24 643.488ZM1214.15 634.418L1204.27 617.904H1203.73L1214.15 634.418ZM1145.79 608.022L1145.39 607.887L1145.79 608.157V608.022V608.022ZM1144.98 607.074L1144.85 607.21L1144.98 607.345V607.075V607.074ZM1144.03 605.721V605.585L1143.9 605.721H1144.03ZM1144.57 605.179L1144.98 605.45V605.179H1144.57ZM1145.39 604.638L1144.85 604.773H1144.98L1145.39 604.638H1145.39ZM1144.44 604.502L1144.03 604.096L1144.17 604.232L1144.44 604.503V604.502ZM1143.49 603.013H1143.22L1143.63 603.149L1143.49 603.013H1143.49ZM1144.44 601.389H1143.9L1143.76 601.524L1144.44 601.389H1144.44ZM1144.98 601.66L1144.3 600.983L1144.57 601.118L1144.98 601.66V601.66ZM1139.84 595.839L1139.57 595.704V595.839H1139.84ZM1134.02 595.839L1133.61 595.298L1133.75 595.974L1134.02 595.839V595.839ZM1084.74 591.372L1088.8 588.259L1084.34 591.237L1084.74 591.372V591.372ZM1092.86 584.874L1093.27 584.468L1091.65 585.145L1092.86 584.874V584.874ZM1041.43 575.805L1026.67 580.543L1034.79 578.241L1041.43 575.805V575.805ZM1078.11 552.793L1074.18 553.469L1015.71 562.945L1021.8 576.888L1022.2 577.023L1020.71 582.573L1025.05 580.678L1029.78 576.482L1037.91 576.211L1047.25 572.827L1053.61 573.774L1052.12 576.076L1063.76 580.001L1073.78 584.874L1076.08 590.289L1083.52 588.665L1101.12 574.316L1107.62 574.587L1134.15 594.621L1139.57 593.538L1145.25 601.118L1146.33 613.166L1144.57 620.746L1145.39 624.537L1150.12 634.012L1147.96 626.567L1154.05 626.432L1154.59 631.846L1151.34 640.239L1162.58 655.671L1166.77 655.806L1163.26 651.068L1167.59 651.61L1170.16 649.986L1169.08 658.649L1174.9 663.251L1178.82 673.81L1184.1 677.059L1190.87 678.818L1200.21 690.731L1205.08 693.303L1198.59 693.709L1201.56 697.093L1212.26 693.573L1217.54 690.595L1222.41 673.539L1219.97 647.007L1219.43 644.3L1206.44 622.642L1195.34 606.939L1189.11 594.079L1194.39 598.546L1195.47 597.734L1197.77 608.97L1203.73 617.498L1197.91 606.127L1198.18 600.712L1180.72 579.46L1176.52 572.827L1170.97 561.592L1167.18 552.116L1164.2 548.732L1163.53 544.4L1163.39 544.265L1154.05 543.723L1150.4 546.566L1148.36 556.989L1146.47 552.116L1082.58 560.102L1077.97 552.928L1078.11 552.793V552.793Z" fill="#BED4FF" stroke="#F0F5FF" stroke-width="2.1824" stroke-linejoin="round"/>
<path d="M1165.56 524.231L1165.42 520.17L1164.47 523.689L1165.56 524.231H1165.56ZM1167.05 518.004L1166.5 514.89L1166.1 516.785L1167.05 518.004V518.004ZM1103.69 432.723L1101.93 433.129L1096.79 434.212L1077.84 438.138L1076.08 438.544L1074.18 438.815L1063.63 440.845L1060.78 441.387L1049.28 443.552L1046.84 443.823L1046.98 444.094L1065.11 499.323L1075.13 517.192L1072.7 519.899L1071.21 530.457L1074.18 535.872L1074.45 545.754L1078.11 552.657V552.793L1077.97 552.928L1082.58 560.103L1146.47 552.116L1148.36 556.989L1150.4 546.566L1154.05 543.723L1163.39 544.265L1162.58 529.645L1164.34 526.532L1163.39 520.711L1165.29 515.161L1168.13 512.048L1166.1 510.153L1170.84 504.332H1170.7L1162.58 496.751L1151.48 480.914L1145.39 478.071L1119.26 456.142L1112.9 448.02L1100.58 442.876L1099.9 440.168L1103.69 432.723V432.723Z" fill="#BED4FF" stroke="#F0F5FF" stroke-width="2.1824" stroke-linejoin="round"/>
<path d="M985.52 589.341L984.843 589.476V589.612L985.52 589.341V589.341ZM998.109 587.716H996.214L997.973 587.852L998.109 587.716H998.109ZM982.406 589.07L981.865 589.611L982 589.747L982.406 589.07L982.406 589.07ZM995.131 587.987H989.987L994.86 588.122L995.131 587.987ZM938.683 458.983V459.119L932.998 468.594L933.539 475.904L925.823 484.432L927.854 486.869L922.71 508.527L925.147 513.13L923.793 514.077L923.928 517.055V518.003L927.042 525.313L926.771 529.78L931.78 535.871L921.492 553.469L919.867 564.027L917.025 568.224L918.92 573.097L917.16 574.857L963.861 569.713L962.237 576.21L968.193 587.852L971.306 591.777V591.642L976.315 585.957L986.873 583.655L996.62 584.738L998.109 582.843V582.708L991.205 541.015L990.935 510.558L990.122 455.058L988.227 453.839L987.686 452.756H987.415L980.647 453.704L968.735 455.328L941.661 458.712L938.683 458.983L938.683 458.983Z" fill="#BED4FF" stroke="#F0F5FF" stroke-width="2.1824" stroke-linejoin="round"/>
<path d="M1103.69 432.724L1099.9 440.169L1100.58 442.877L1112.9 448.021L1119.26 456.143L1145.39 478.072L1151.48 480.914L1162.58 496.752L1170.7 504.333L1172.05 498.106L1169.89 492.15L1175.71 496.482L1178.96 493.91L1173.41 489.307L1180.18 488.901L1190.73 479.967L1189.52 477.666L1196.01 472.657L1195.34 470.221L1200.07 467.243L1200.35 460.339L1207.79 446.532L1212.8 440.169L1213.34 439.899L1183.15 420.812L1171.92 422.978L1156.62 422.436L1149.04 418.511L1104.1 432.724H1103.69V432.724Z" fill="#BED4FF" stroke="#F0F5FF" stroke-width="2.1824" stroke-linejoin="round"/>
<path d="M908.361 248.217L908.091 248.894L913.234 252.143L914.859 255.391L920.273 260.535L920.138 264.867L917.16 273.395L910.392 278.268L904.3 279.487L903.082 286.526L905.112 287.473L903.082 301.28L898.073 304.394L899.021 309.673L897.803 310.215L896.72 316.171L901.051 328.218L916.483 341.213L917.837 347.44L920.815 350.554L930.561 350.012L928.801 359.082L928.125 368.828L933.945 373.566L943.15 377.627L948.023 381.417L950.731 389.133L949.242 391.976L958.853 399.827L959.259 399.962L958.447 399.15L961.154 392.788L971.577 395.631L974.149 392.653L972.119 386.697L980.647 381.688L978.345 378.439L980.376 373.837V373.431L979.834 373.295L979.97 361.248L982.948 359.082L988.092 347.034L987.009 341.755L983.625 335.393L985.52 328.218L976.044 261.483L974.691 259.994L971.171 252.007L968.328 249.029L967.11 241.178V240.907L948.836 243.479L937.871 244.833L908.361 248.217V248.217Z" fill="#BED4FF" stroke="#F0F5FF" stroke-width="2.1824" stroke-linejoin="round"/>
<path d="M1032.36 251.063L1011.65 254.717L1006.91 255.665L990.122 258.372L986.602 261.215L981.323 263.652L979.293 263.516L976.856 262.298L976.044 261.486L985.52 328.221L983.624 335.396L987.009 341.758L988.092 347.037L982.948 359.085L979.97 361.25L979.834 373.298L980.376 373.433L980.917 373.298L982.948 369.508H987.956L994.048 367.477L1001.63 370.32L1002.44 367.207L1006.77 363.958L1013.27 364.905L1016.79 358.002L1026.4 358.814L1026.26 354.888L1034.79 343.653L1033.44 338.509L1039.4 338.374L1046.7 332.553L1044.95 325.92L1045.22 325.649L1044.95 323.348L1036.82 275.428L1033.17 254.988L1032.76 252.822L1032.36 251.062L1032.36 251.063Z" fill="#BED4FF" stroke="#F0F5FF" stroke-width="2.1824" stroke-linejoin="round"/>
<path d="M952.626 414.179L952.22 413.096L951.407 412.826L950.866 414.585L951.001 414.721L952.49 414.585L952.626 414.179H952.626ZM1045.22 325.65L1044.95 325.921L1046.71 332.554L1039.4 338.374L1033.44 338.51L1034.79 343.654L1026.26 354.889L1026.4 358.815L1016.79 358.003L1013.27 364.906L1006.77 363.959L1002.44 367.207L1001.63 370.321L994.048 367.478L987.956 369.509H982.948L980.917 373.299L980.376 373.434V373.84L978.345 378.443L980.646 381.692L972.118 386.7L974.149 392.656L971.577 395.634L961.154 392.792L958.446 399.154L959.259 399.966L959.529 400.508L958.311 411.608L957.77 411.878L954.25 414.044L954.115 414.45L958.04 413.909L985.384 410.254L984.031 404.839L988.633 404.704L1043.73 397.394L1082.44 390.896L1082.98 390.49L1083.93 389.407L1094.08 383.993L1101.93 373.705L1103.02 370.185L1108.16 366.125L1114.66 357.867L1115.61 356.514L1115.2 356.378H1111.82L1107.48 353.941L1099.77 344.601L1097.06 335.126V334.855L1096.79 334.584L1091.11 331.335L1088.53 327.004L1083.39 332.012L1080.14 332.824L1076.08 331.2L1072.56 333.907L1065.25 330.659L1063.36 331.471L1056.45 325.515L1052.93 323.755L1046.3 324.567L1045.22 325.65V325.65Z" fill="#BED4FF" stroke="#F0F5FF" stroke-width="2.1824" stroke-linejoin="round"/>
<path d="M1227.42 435.162L1225.93 436.651L1226.2 436.922L1227.42 435.162ZM1228.5 427.311L1227.82 428.394L1228.1 429.477L1228.5 427.311ZM1236.62 414.722L1234.59 416.075L1233.51 417.7L1236.62 414.722V414.722ZM1254.09 406.194L1253.27 405.652L1251.51 405.517L1254.09 406.194V406.194ZM1250.43 405.381H1249.21L1247.18 406.464L1250.43 405.381ZM1254.63 406.871L1258.55 397.124L1255.85 401.185L1254.63 406.871ZM1260.45 394.011L1262.21 391.439H1261.26L1260.45 394.011ZM1271.82 383.452L1268.84 368.427L1271.41 376.278L1271.82 383.452ZM1255.3 349.205L1255.03 349.34L1254.63 349.475H1254.76L1262.21 362.064L1268.03 367.885L1255.3 349.205L1255.3 349.205ZM1252.87 350.017L1251.78 350.287L1252.06 350.423H1254.36L1254.09 349.611L1253.68 349.746H1253.27V350.017L1253 350.152L1252.87 350.017V350.017ZM1127.65 380.88L1126.98 382.911L1127.11 388.731L1125.62 388.596L1122.1 395.77L1118.18 396.177L1110.87 403.351L1107.62 402.133L1103.42 408.359L1092.32 418.377L1086.91 419.73L1081.22 425.009L1080.95 428.529L1075.94 431.236L1076.08 437.192V438.546L1077.84 438.14L1096.79 434.214L1101.93 433.131L1103.69 432.725H1104.1L1149.04 418.512L1156.62 422.438L1171.92 422.979L1183.15 420.813L1213.34 439.9L1213.88 439.494L1227.82 433.808L1227.96 426.363L1232.97 417.294L1238.38 412.15L1249.62 404.705L1251.11 401.997L1254.09 403.351L1255.44 394.417L1253.82 397.53L1248.13 399.425L1242.72 399.561L1249.35 394.688L1247.32 392.522L1249.62 387.649L1236.89 385.618L1236.35 384.941L1247.18 382.911L1250.7 384.671L1255.17 384.264L1258.82 381.557L1261.53 376.278L1263.97 375.601L1263.56 368.156L1260.45 365.178L1257.33 368.02L1258.01 375.195L1255.71 366.396L1253.95 365.99L1240.55 371.54L1246.51 365.719L1246.78 363.418L1253 361.929L1254.76 357.327L1258.96 359.763L1254.49 353.13L1251.38 350.423L1197.23 365.855L1162.71 374.653L1127.79 381.151L1127.65 380.88H1127.65Z" fill="#BED4FF" stroke="#F0F5FF" stroke-width="2.1824" stroke-linejoin="round"/>
<path d="M1126.98 259.996L1123.59 245.376L1122.92 242.398L1119.13 225.748L1114.25 228.861L1103.83 236.848L1097.06 245.105L1091.78 245.918L1082.04 251.468L1076.62 248.219L1060.24 246.324L1051.58 248.49L1043.05 250.52L1034.12 252.415L1032.76 252.821L1033.17 254.987L1036.82 275.427L1044.95 323.347L1045.22 325.648L1046.3 324.565L1052.93 323.753L1056.45 325.513L1063.36 331.469L1065.25 330.657L1072.56 333.906L1076.08 331.198L1080.14 332.823L1083.39 332.01L1088.53 327.002L1091.11 331.334L1096.79 334.582L1097.06 334.853L1102.88 332.01L1104.91 327.543L1103.29 322.941L1107.89 315.902L1111.28 315.36L1110.87 309.404L1116.42 301.824L1117.37 302.907L1122.38 299.116L1126.71 292.619L1127.38 262.974L1127.65 262.838L1126.98 259.996V259.996Z" fill="#BED4FF" stroke="#F0F5FF" stroke-width="2.1824" stroke-linejoin="round"/>
<path d="M1082.44 390.895L1043.73 397.393L988.633 404.703L984.03 404.838L985.384 410.253L958.04 413.908L954.115 414.449V414.584L953.032 415.938L952.49 415.803V414.72V414.584L951.001 414.72L951.137 414.855L951.949 418.645L949.241 422.03L948.971 428.256V429.339V429.475L944.91 437.326L945.722 442.876L941.932 448.832L943.285 454.247L938.412 458.714L938.683 458.985L941.661 458.714L968.734 455.33L980.646 453.705L987.415 452.758H987.685L987.55 452.487L1010.29 449.374L1021.12 448.02L1042.78 444.5L1046.84 443.824L1049.28 443.553L1060.78 441.387L1063.63 440.846L1074.18 438.815L1076.08 438.544V437.191L1075.94 431.235L1080.95 428.527L1081.22 425.008L1086.91 419.728L1092.32 418.375L1103.42 408.358L1107.62 402.131L1110.87 403.349L1118.18 396.175L1122.1 395.769L1125.62 388.594L1127.11 388.73L1126.98 382.909L1127.65 380.878L1125.49 381.285L1117.77 383.45L1108.57 385.346L1085.42 390.083L1082.98 390.489L1082.44 390.896L1082.44 390.895Z" fill="#BED4FF" stroke="#F0F5FF" stroke-width="2.1824" stroke-linejoin="round"/>
<path d="M1253.27 349.744H1253.68L1254.09 349.609L1253.81 348.932L1253.27 349.744V349.744ZM1248.67 334.583V335.26L1249.35 334.854L1248.67 334.583V334.583ZM1251.11 329.846L1250.97 328.763L1251.11 329.846ZM1250.3 331.47L1250.02 333.23L1249.62 333.907L1250.3 331.47ZM1251.51 327.951L1251.65 327.138L1251.38 327.951H1251.51H1251.51ZM1252.33 324.296L1252.73 323.348L1252.06 325.785L1252.33 324.296ZM1252.46 322.265L1253 319.287L1252.33 319.964L1252.46 322.265V322.265ZM1254.9 308.864L1255.17 307.646L1255.03 307.916L1254.9 308.864H1254.9ZM1254.36 305.751L1252.6 306.427L1249.89 307.646L1248.94 308.864L1249.35 308.999L1246.1 329.169L1247.32 332.418L1249.21 324.025L1252.73 313.06L1254.36 305.886V305.751V305.751ZM1257.06 304.668L1256.66 304.803L1256.52 305.344L1255.85 309.541L1256.39 308.052L1257.06 304.668V304.668ZM1115.61 356.513L1114.66 357.866L1108.16 366.124L1103.02 370.185L1101.93 373.704L1094.08 383.992L1083.93 389.407L1082.98 390.49L1085.42 390.084L1108.57 385.346L1117.77 383.451L1125.49 381.285L1127.65 380.879L1127.79 381.149L1162.71 374.652L1197.23 365.853L1251.38 350.421L1250.97 349.744L1250.84 349.338L1251.78 350.286L1252.87 350.015L1252.73 349.88L1251.78 345.277L1252.46 345.413L1254.63 349.474L1255.03 349.338L1255.3 349.203L1254.76 348.12L1249.21 339.592L1242.31 340.81L1239.2 343.382L1236.22 340.675L1226.06 337.291L1219.03 337.02L1232.7 335.802L1240.28 340.946L1242.44 337.561L1236.35 329.846L1240.68 330.116L1238.38 323.889L1232.97 324.16L1220.11 313.737H1218.48L1236.62 322.671L1235.41 316.444L1236.62 314.414L1227.42 310.894L1219.43 310.353L1215.51 306.833L1212.26 308.864L1211.04 299.524L1212.39 299.794L1212.12 292.214L1211.85 291.943L1211.58 292.078L1211.31 291.943L1210.63 291.402L1210.23 290.996L1205.9 289.1L1201.43 285.852L1195.2 284.227L1194.8 284.092V284.227L1193.98 289.913L1181.39 284.498L1181.66 292.349L1174.76 305.48L1170.56 310.082L1167.86 318.069L1159.6 315.226L1155.54 333.636L1152.29 339.863L1151.75 347.985L1149.31 351.91L1140.24 354.618L1132.8 360.438L1129.28 360.98L1125.89 363.958L1117.37 360.844L1115.88 356.648L1115.61 356.513L1115.61 356.513Z" fill="#BED4FF" stroke="#F0F5FF" stroke-width="2.1824" stroke-linejoin="round"/>
<path d="M970.223 159.825L966.839 164.021L964.809 170.113L965.756 173.497L970.223 159.825ZM892.523 128.014L894.554 125.171L893.065 126.525L892.523 128.014V128.014ZM895.637 123.547L894.96 122.735L893.471 123.682L895.637 123.547V123.547ZM866.127 131.127L863.013 134.647L864.502 150.891L855.839 158.742L854.215 166.323L858.952 170.654L857.599 189.335L862.607 193.125L865.856 193.396L876.144 199.623L882.641 206.391L890.899 210.587L892.794 221.01V221.687L896.72 226.425L895.637 230.08L896.99 238.067L901.051 243.617L908.496 247.542L908.361 248.219L937.871 244.835L948.835 243.481L967.11 240.909L966.568 238.879V232.517L962.913 225.748L961.966 217.22L963.726 207.745L962.778 200.435L966.027 191.365L964.809 189.876L965.079 181.484L966.839 175.121L964.809 172.955L960.883 174.309L958.717 179.995L953.573 182.973L955.198 175.798L959.8 169.707L960.071 166.999L960.206 166.864L953.709 160.366V151.162L946.399 145.205L936.382 144.529L926.094 141.821L903.894 135.053L899.562 132.616L899.156 133.022L892.252 132.075L889.951 133.429L890.899 123.547L879.799 129.232L866.262 131.398L866.127 131.127V131.127ZM892.659 123.953L892.388 123.005L891.44 123.412L892.659 123.953ZM887.785 123.005L888.191 122.193L887.921 121.923L887.785 123.005V123.005ZM897.667 120.704L897.261 118.809L896.855 121.11L897.667 120.704V120.704Z" fill="#BED4FF" stroke="#F0F5FF" stroke-width="2.1824" stroke-linejoin="round"/>
<path d="M1152.83 283.82L1133.61 288.558L1127.65 262.838L1127.38 262.974L1126.71 292.619L1122.37 299.117L1117.37 302.907L1116.42 301.824L1110.87 309.404L1111.27 315.36L1107.89 315.902L1103.29 322.941L1104.91 327.543L1102.88 332.01L1097.06 334.853V335.124L1099.77 344.6L1107.48 353.94L1111.82 356.376H1115.2L1115.61 356.512L1115.88 356.647L1117.37 360.844L1125.89 363.957L1129.28 360.979L1132.8 360.437L1140.24 354.617L1149.31 351.909L1151.75 347.984L1152.29 339.862L1155.54 333.635L1159.6 315.225L1167.86 318.068L1170.56 310.081L1174.76 305.479L1181.66 292.348L1181.39 284.497L1193.98 289.912L1194.8 284.226V284.091L1190.87 277.323L1182.75 276.375L1178.01 280.03V282.737L1173.95 283.685L1167.99 287.881L1164.88 288.558L1158.65 297.357L1155.54 283.143L1152.83 283.82V283.82Z" fill="#BED4FF" stroke="#F0F5FF" stroke-width="2.1824" stroke-linejoin="round"/>
<path d="M1232.43 261.486L1232.97 263.517L1244.2 295.598L1257.06 291.808L1256.93 291.537H1257.2L1257.61 291.673L1257.88 291.537L1257.61 290.996L1254.36 282.333L1238.52 267.307L1239.2 256.884H1235.95L1233.51 258.779L1232.43 261.486H1232.43Z" fill="#BED4FF" stroke="#F0F5FF" stroke-width="2.1824" stroke-linejoin="round"/>
<path d="M1210.63 291.399L1211.31 291.94L1211.58 292.076L1211.85 291.94L1212.12 292.076L1213.07 292.617L1213.34 293.023V293.971L1213.61 294.512L1215.37 291.264L1213.48 290.181L1211.17 290.316L1210.63 291.399V291.399Z" fill="#BED4FF" stroke="#F0F5FF" stroke-width="2.1824" stroke-linejoin="round"/>
<path d="M1257.2 304.125L1258.15 296.815L1257.33 302.23L1256.79 304.531L1256.66 304.802L1257.06 304.667L1257.2 304.125V304.125ZM1257.88 291.536L1257.61 291.672L1257.88 292.484V294.108V291.536V291.536ZM1155.54 283.143L1158.65 297.357L1164.88 288.558L1167.99 287.881L1173.95 283.685L1178.01 282.737V280.03L1182.75 276.375L1190.87 277.323L1194.8 284.091L1195.2 284.226L1201.43 285.851L1205.9 289.1L1210.23 290.995L1210.63 291.401L1211.17 290.318L1213.48 290.183L1215.37 291.265L1213.61 294.514V294.65L1211.04 302.501L1219.43 307.916L1227.82 308.322L1233.37 310.894L1231.07 304.396L1223.9 301.959L1222.14 296.409L1226.61 302.366L1230.26 302.907L1227.01 299.658L1224.44 290.047L1225.12 284.497L1222.27 278.406L1225.25 275.969L1227.42 268.118L1226.61 279.759L1228.91 283.685L1231.07 279.083L1232.29 286.663L1229.99 292.213L1236.62 294.65L1230.94 296.545L1233.92 302.095L1238.79 303.719L1241.5 298.981L1241.23 305.614L1245.83 305.479L1248.81 308.863H1248.94L1249.89 307.645L1252.6 306.426L1254.36 305.75L1254.22 305.479L1257.74 295.056V294.65L1257.06 291.942V291.807L1244.2 295.597L1232.97 263.515L1232.43 261.485L1230.13 262.162L1220.51 265.14L1167.59 279.895L1157.98 282.467L1155.54 283.143V283.143Z" fill="#BED4FF" stroke="#F0F5FF" stroke-width="2.1824" stroke-linejoin="round"/>
<path d="M1264.51 260.944L1263.83 259.319V260.944H1264.51ZM1265.86 255.935L1266.27 251.874L1265.46 255.394L1265.86 255.935V255.935ZM1260.31 214.378L1246.1 210.858L1243.66 210.182L1241.36 209.64L1235.68 222.229L1238.11 225.207L1237.98 234.277L1240.55 234.683L1245.83 248.49L1245.56 248.896L1238.92 258.643L1239.6 266.088L1255.57 271.502L1255.71 277.729L1259.36 272.585L1259.91 265.14L1263.7 262.568L1262.21 257.018L1265.05 250.385V235.901L1264.1 231.163L1257.74 231.299L1259.36 224.801L1260.31 214.378V214.378Z" fill="#BED4FF" stroke="#F0F5FF" stroke-width="2.1824" stroke-linejoin="round"/>
<path d="M1259.91 225.343L1257.88 228.186L1257.34 228.998L1259.91 225.343ZM1278.59 218.71L1285.36 212.754V212.483L1278.59 218.71ZM1260.85 222.907V218.304L1260.45 220.741L1260.85 222.907ZM1292.26 201.248L1290.64 200.842L1290.36 202.06L1292.26 201.248ZM1295.91 198.812L1295.78 200.165L1296.05 199.353L1295.91 198.812H1295.91ZM1292.12 198.947L1283.05 207.34L1269.11 213.296L1265.46 216.409L1265.19 219.387L1261.4 222.501L1261.94 226.562L1267.76 224.26L1276.29 217.357L1285.76 212.348L1300.11 198.812L1289.96 206.527L1286.71 207.881L1292.12 198.947V198.947ZM1296.32 193.262L1296.86 192.449L1295.24 194.344L1296.32 193.262ZM1144.17 188.253L1142 187.982L1143.63 190.148L1144.17 188.253ZM1189.11 146.831L1189.38 145.342L1188.3 146.696L1189.11 146.831V146.831ZM1189.79 137.085L1189.25 137.355L1188.57 138.844L1189.79 137.085ZM1132.53 213.973L1133.48 218.034L1140.65 219.793L1181.8 208.558L1223.22 196.104L1230.8 201.925L1232.29 205.309L1241.09 209.099L1241.36 209.641L1243.66 210.182L1246.1 210.859L1260.31 214.379L1260.04 213.702L1261.26 219.252L1263.97 218.575L1265.46 212.484V212.348L1263.02 210.047L1266.54 205.715L1264.92 203.685L1259.77 183.786L1259.5 182.432L1258.82 182.026L1258.42 176.07L1258.01 169.572L1257.61 162.533V162.127L1257.34 162.263L1250.57 140.063L1243.39 128.827L1241.36 115.426L1235.27 101.213L1234.46 101.619L1206.17 111.094L1200.48 117.186L1194.12 129.369L1194.39 132.076L1186 144.801L1191.14 146.56L1192.63 156.171L1186.67 164.022L1168.81 174.852L1165.42 173.498L1152.16 175.393L1139.84 182.838L1140.51 186.764L1144.85 190.554L1142.41 202.466L1132.66 213.837L1132.53 213.973V213.973Z" fill="#BED4FF" stroke="#F0F5FF" stroke-width="2.1824" stroke-linejoin="round"/>
<path d="M1241.09 209.096L1232.29 205.306L1230.8 201.922L1223.22 196.101L1181.8 208.555L1140.65 219.79L1133.47 218.03L1132.53 213.969L1130.23 215.729L1126.57 218.301L1119.94 225.069L1119.13 225.746L1122.92 242.396L1123.59 245.374L1126.98 259.994L1127.65 262.837L1133.61 288.556L1152.83 283.818L1155.54 283.141L1157.98 282.465L1167.59 279.893L1220.52 265.138L1230.13 262.16L1232.43 261.483L1233.51 258.776L1235.95 256.88H1239.2L1239.6 255.662L1244.88 249.706L1245.42 248.758L1245.83 248.488L1240.55 234.68L1237.98 234.274L1238.11 225.205L1235.68 222.227L1241.36 209.638L1241.09 209.096V209.096Z" fill="#BED4FF" stroke="#F0F5FF" stroke-width="2.1824" stroke-linejoin="round"/>
<path d="M1306.34 136.95H1306.2L1306.47 137.085L1306.34 136.95H1306.34ZM1316.35 108.117L1315.27 106.492V107.304L1316.35 108.117ZM1314.46 106.628V105.274L1314.32 104.462L1314.46 106.628ZM1319.33 100.942L1319.06 100.807L1319.2 101.213L1319.33 100.942L1319.33 100.942ZM1332.87 94.1739L1332.6 92.1434L1332.06 93.0909L1332.87 94.1739ZM1329.49 94.9861L1329.62 93.497L1328 93.7678L1329.49 94.9861V94.9861ZM1334.49 90.519H1333.95V90.7897L1334.49 90.519ZM1327.73 92.5495L1326.51 92.2787L1326.37 93.497L1327.73 92.5495V92.5495ZM1334.63 88.3531L1335.85 89.3007L1335.44 88.2178L1334.63 88.3531V88.3531ZM1330.97 88.4885L1329.76 90.7897L1331.38 89.9775L1330.97 88.4885ZM1325.15 88.6239L1324.61 89.4361L1325.02 90.6543L1325.15 88.6239V88.6239ZM1333.14 84.1568L1333 83.0738L1332.6 83.7507L1333.14 84.1568H1333.14ZM1332.46 84.6982L1331.25 83.6153V84.5629L1332.46 84.6982V84.6982ZM1324.88 87.8117L1324.61 86.3226L1324.07 87.5409L1324.88 87.8117ZM1337.74 83.0738L1335.71 86.0519L1335.58 83.886L1337.74 83.0738V83.0738ZM1347.62 74.0043L1346.68 72.6507L1346.14 72.9214L1347.62 74.0043ZM1351.28 67.9128L1350.47 67.5067L1350.33 67.9128H1351.28V67.9128ZM1353.04 57.3543H1351.82L1353.17 57.7604L1353.04 57.3543H1353.04ZM1355.07 58.708L1354.66 56.2714L1353.58 56.136L1355.07 58.708V58.708ZM1352.9 56.5421L1352.63 53.9701L1351.69 55.7299L1352.9 56.5421ZM1274.39 77.7946L1294.02 123.819L1294.29 124.767L1302.82 135.19V135.054L1304.17 134.648L1304.44 126.932L1306.61 124.225L1307.96 117.051L1306.74 115.832L1309.05 108.793L1316.9 105.138L1322.04 98.9116L1323.94 88.0823L1332.19 87.5409L1331.11 81.9909L1341.4 78.0652L1342.07 71.9738L1344.51 72.5152L1351.28 66.9652L1354.26 59.7908L1347.35 52.8872L1340.04 51.3981L1337.34 45.8481V42.5993L1332.87 43.953L1327.86 42.1932V36.6432L1314.32 7.40416L1304.44 2.26025L1293.48 11.4651L1290.5 10.9237L1287.93 6.18587L1284.41 7.53953L1279.4 32.4469L1281.16 40.5688L1282.65 57.0835L1278.72 69.8079L1281.43 71.8384L1278.18 78.0652L1274.66 77.5238L1274.39 77.7945V77.7946Z" fill="#BED4FF" stroke="#F0F5FF" stroke-width="2.1824" stroke-linejoin="round"/>
<path d="M989.987 164.563L989.31 163.48L989.174 164.834L989.987 164.563V164.563ZM992.153 162.127L990.528 159.961L990.257 160.908L992.153 162.127ZM993.506 152.38L992.153 151.162V151.433L993.506 152.38ZM990.122 258.372L1006.91 255.665L1011.65 254.717L1032.36 251.062L1032.76 252.822L1034.12 252.416L1043.05 250.521L1051.58 248.49L1060.24 246.324L1060.11 245.918L1064.57 237.12L1064.17 229.81L1069.18 217.221L1073.1 219.522L1074.59 216.679L1074.18 205.85L1070.53 199.082L1065.11 184.733L1060.38 179.454L1057.94 178.777L1049.14 184.868L1050.09 186.087L1045.49 194.75L1041.02 193.938L1039.67 184.868L1041.56 184.191L1045.49 175.122L1045.89 159.149L1039.8 145.612L1026.26 143.311L1024.91 141.28L1012.32 137.626L1006.64 144.665L1007.18 150.756L1002.85 156.171L1003.79 164.563L999.598 167.541V156.983L995.807 164.969L991.34 172.008L988.362 174.31L989.851 181.755L987.956 189.471L989.039 199.082L987.685 203.82L997.432 222.5L998.65 229.674L997.432 242.94L990.934 257.831L990.122 258.372V258.372ZM1019.09 136.407L1015.57 136.678L1017.74 138.302L1019.09 136.407ZM998.515 139.927H997.432L998.65 140.468L998.515 139.927H998.515ZM1022.2 122.735L1020.85 120.569L1020.31 120.705L1022.2 122.735V122.735ZM899.562 132.617L903.894 135.054L926.094 141.822L936.382 144.529L946.399 145.206L953.709 151.162V160.367L960.206 166.865V166.729L965.485 151.433L971.848 146.966L976.721 141.551L977.533 146.424L982.542 138.708L994.589 134.106L995.537 132.211L1007.72 133.7L1012.46 136.136L1014.76 130.18L1016.92 131.534L1026.4 130.045L1024.1 126.255L1019.9 123.818L1020.71 115.019L1012.46 119.622L1004.88 118.674L1002.44 112.853L1003.25 110.958L992.965 115.832L986.332 116.238L974.42 123.547L973.066 126.255L965.756 124.495L961.154 126.525L951.949 118.539L931.509 112.312L931.102 109.875L917.972 122.464L910.527 124.36L899.968 132.346L899.562 132.617V132.617ZM947.482 101.889L931.644 109.74L936.923 114.884L938.954 109.74L944.368 103.107L947.482 101.889V101.889ZM929.749 83.3438L918.92 90.7889L918.378 94.4438L926.906 88.2169L929.749 83.3438V83.3438Z" fill="#BED4FF" stroke="#F0F5FF" stroke-width="2.1824" stroke-linejoin="round"/>
<path d="M127.163 729.04L126.486 729.31L127.028 729.446L127.163 729.04H127.163ZM132.172 729.852V729.987V729.852ZM129.735 727.551V727.957L130.006 727.821L129.735 727.551V727.551ZM128.517 726.874V726.738V726.874ZM131.089 728.228V727.957L130.953 728.092L131.089 728.228V728.228ZM130.818 727.957V727.821H130.547L130.818 727.957ZM25.2327 639.021L25.0973 639.969L25.368 642.676L25.2327 639.021H25.2327ZM24.5558 635.366L24.6912 636.585L24.8266 636.179L24.5558 635.366H24.5558ZM130.818 726.332L130.954 725.52L130.412 725.791L130.818 726.332H130.818ZM146.25 732.965L146.114 732.83L146.385 733.371L146.25 732.965L146.25 732.965ZM136.233 728.228L134.744 726.874V730.123L136.233 728.228ZM139.617 731.206L139.482 730.258L137.18 730.123L139.617 731.206H139.617ZM147.739 733.101L147.604 733.371H147.874L147.739 733.101H147.739ZM148.28 733.236H148.01L148.551 733.372L148.28 733.236ZM149.905 733.778H149.769H149.634H149.905H149.905ZM30.3766 641.999L30.918 642.135L31.3241 641.999H30.3766ZM146.927 731.882L145.844 731.747L146.25 732.153L146.927 731.882V731.882ZM23.0668 631.441L21.1717 630.629L21.0363 631.035L23.0668 631.441H23.0668ZM150.311 732.153L150.04 732.018V732.153H150.311ZM158.568 733.778L153.289 734.184L152.071 734.725L158.568 733.778ZM13.4558 610.188H11.9668L12.2375 610.595L13.4558 610.188ZM174.947 740.004V739.463H174.677L174.947 740.004ZM181.987 740.14L182.257 739.869L181.987 739.598V740.14ZM187.266 741.629L187.537 741.493H187.401L187.266 741.629H187.266ZM182.934 739.192L182.799 738.651H182.528L182.934 739.192H182.934ZM192.004 741.223L191.868 741.358H192.004V741.223ZM14.268 603.285L12.2375 603.556L14.8095 605.857L14.268 603.285ZM184.829 739.192L185.1 738.38H184.965L184.829 739.192H184.829ZM207.706 737.162L207.842 736.891L207.571 736.756L207.706 737.162L207.706 737.162ZM204.322 735.943L199.584 740.14L202.968 739.869L206.894 736.756L204.322 735.943V735.943ZM212.85 737.433L211.902 737.162L212.579 737.703L212.85 737.433ZM214.745 737.568L213.256 737.162L212.985 737.297L214.745 737.568V737.568ZM209.601 735.673H208.112L210.684 736.35L209.601 735.673ZM215.828 737.026L215.693 736.756L215.151 736.891L215.828 737.027L215.828 737.026ZM211.767 735.402L211.226 735.131V736.62L211.767 735.402ZM229.094 738.786L228.958 738.651H228.688L229.094 738.786H229.094ZM229.365 738.651V738.515L229.094 738.38L229.365 738.651V738.651ZM227.063 737.839L227.334 738.38V738.245L227.063 737.839V737.839ZM228.282 737.839L227.063 737.433L228.552 738.515L228.282 737.839ZM230.041 736.485V736.62V736.485ZM246.15 738.515L245.879 737.974H245.744L246.15 738.515H246.15ZM391.804 729.446L391.533 729.175L391.669 729.446H391.804H391.804ZM227.74 733.642V733.507L227.605 733.642H227.74ZM395.73 727.009L396.136 727.551H396.406L395.73 727.009V727.009ZM247.774 737.162L247.639 737.297V737.703L247.774 737.162V737.162ZM230.989 734.725L231.26 733.642H231.124L230.989 734.725H230.989ZM403.581 723.896L402.362 724.573L403.445 725.114L403.581 723.896H403.581ZM233.426 734.048L233.29 733.778L233.426 734.048ZM223.273 731.07L219.889 731.747L216.911 735.673L223.273 731.07ZM247.504 736.214L246.692 736.891L247.504 736.756V736.214V736.214ZM403.581 723.219L403.31 722.678L403.175 722.948L403.581 723.219H403.581ZM234.509 732.695L233.561 732.559L234.509 733.507V732.695V732.695ZM394.647 724.979L394.376 725.25L394.647 726.197V724.979ZM236.674 732.559L236.268 732.695L236.81 733.101L236.674 732.559L236.674 732.559ZM246.692 735.402H246.285L246.015 735.131L246.692 735.402ZM235.591 732.559L234.915 732.153L235.185 732.559H235.591ZM244.661 734.048L243.443 734.454L242.631 736.62L244.661 734.048ZM391.669 724.573V725.52L392.21 724.843L391.669 724.573ZM228.688 729.717L229.771 729.446H229.635L228.688 729.717H228.688ZM227.334 728.905L227.063 728.634V728.769L227.334 728.905V728.905ZM391.669 723.625L391.398 723.49L391.262 723.896L391.668 723.625L391.669 723.625ZM243.172 731.747L242.901 731.612L242.631 732.018L243.172 731.747V731.747ZM390.315 723.896L390.45 723.219L390.18 723.084L390.315 723.896H390.315ZM389.232 723.219L388.826 723.761L389.503 723.896L389.232 723.219V723.219ZM248.857 729.852L248.587 729.581H248.451L248.857 729.852H248.857ZM388.826 720.783L389.909 721.189L390.315 720.647L388.826 720.783V720.783ZM390.45 719.835L390.044 720.106L390.721 720.512L390.45 719.835V719.835ZM387.337 720.647L387.066 720.106L386.795 720.376L387.337 720.647V720.647ZM400.873 715.639L399.114 720.647L400.873 719.564V715.639V715.639ZM240.465 726.062H240.329H240.465ZM388.961 717.534L387.743 718.752L388.014 720.106L388.961 717.534ZM262.935 728.363V727.822L262.8 728.092L262.935 728.363ZM387.472 716.18L391.398 722.136L400.197 727.686L398.166 722.948L389.773 715.774L387.472 716.18V716.18ZM257.521 726.197L257.385 725.791L257.115 725.926L257.521 726.197H257.521ZM392.075 713.879L391.533 715.909L392.481 715.232L392.075 713.879ZM394.917 713.879L394.782 715.232L396 715.639L394.917 713.879H394.917ZM261.853 724.437L261.176 724.302L260.499 724.573L261.853 724.437V724.437ZM275.795 725.52L275.254 726.468L275.524 725.656L275.795 725.52V725.52ZM277.826 725.656L276.607 725.791L277.284 726.603L277.826 725.656V725.656ZM195.794 708.329L197.148 709.006L196.877 708.735L195.794 708.329ZM249.534 721.73L249.67 721.595L249.534 721.73ZM249.94 721.595H250.076V721.459L249.94 721.595ZM389.909 711.172L390.586 713.743L391.939 712.931L389.909 711.172V711.172ZM253.595 720.106L253.731 719.97L253.595 720.106ZM384.088 712.254L384.765 718.481L386.119 717.128L384.088 712.254V712.254ZM384.765 710.224L387.878 714.556L387.472 711.713L384.765 710.224ZM375.154 711.307L374.342 713.879L375.425 712.119L375.154 711.307V711.307ZM266.861 717.94L266.726 717.804L266.861 717.94ZM279.721 718.211L279.45 717.805L279.721 718.346V718.211V718.211ZM375.425 709.276L380.839 718.211L380.027 712.119L375.425 709.276ZM287.301 714.014L286.895 714.42L287.572 714.691L287.301 714.014ZM285.542 714.285L285.677 713.879H285.136L285.542 714.285H285.542ZM284.188 714.285L280.668 716.586L276.337 722.272L278.503 724.573L288.52 717.128L284.188 714.285ZM369.604 705.486L368.656 704.945V705.757L369.604 705.486ZM283.376 712.661L283.511 713.202L284.459 713.743L283.376 712.661H283.376ZM372.176 702.914L369.469 704.268L372.04 705.08L372.176 702.914H372.176ZM370.416 702.914L370.145 702.643L370.01 702.914H370.416H370.416ZM378.673 700.748L377.59 700.342L377.32 701.154L378.673 700.748V700.748ZM372.853 701.696L371.905 701.56V701.831L372.853 701.696V701.696ZM375.831 700.613L381.381 708.735L379.892 701.29L375.831 700.613V700.613ZM286.489 709.412L283.24 711.848L284.729 713.473L289.061 710.224L286.489 709.412ZM249.67 704.268L249.534 704.132V704.268H249.67ZM248.181 703.591L248.045 702.914V703.185L248.181 703.591ZM289.738 705.351L289.467 705.486V705.622L289.738 705.351V705.351ZM288.384 705.08H288.249L287.978 705.486L288.384 705.08H288.384ZM291.633 703.997L291.227 703.726V703.862L291.633 703.997V703.997ZM292.716 703.862L292.31 703.591V703.726L292.716 703.862V703.862ZM290.956 703.456H290.415V703.591L290.956 703.456ZM317.894 700.748L318.029 700.342L317.759 700.613L317.894 700.748L317.894 700.748ZM326.151 696.417L327.776 694.386L327.234 694.792L326.151 696.417ZM309.637 696.146L310.178 695.74L310.314 695.198L309.637 696.146H309.637ZM309.637 694.657L309.095 695.063L310.043 694.792L309.637 694.657V694.657ZM287.437 694.657L287.301 694.115H287.166L287.437 694.657H287.437ZM309.095 694.521L308.554 695.063L308.283 695.604L309.095 694.521V694.521ZM323.986 692.897H324.121H324.256H323.986H323.986ZM324.662 692.897L324.392 692.762V692.897H324.662ZM323.038 692.762L323.173 692.897V692.762H323.038ZM311.938 693.574L312.479 693.032L311.803 693.574H311.938H311.938ZM313.562 692.356L310.314 697.635L314.51 692.762L313.562 692.356V692.356ZM309.366 693.032L308.96 692.491L308.824 692.762L309.366 693.032H309.366ZM319.654 691.814L319.383 691.679L319.518 691.814H319.654H319.654ZM323.173 692.085V691.137L322.903 691.543L323.173 692.085ZM223.815 681.662L217.317 681.391L221.784 686.129L223.815 681.662V681.662ZM316.27 691.273L316.54 692.22L317.217 691.137L316.27 691.273V691.273ZM310.855 691.137L310.449 694.115L311.126 692.22L310.855 691.137ZM193.357 668.666L193.493 668.125L193.357 668.666ZM309.501 689.242L309.637 689.648L309.907 689.513L309.501 689.242L309.501 689.242ZM308.825 689.784L308.554 688.971L308.148 689.242L308.825 689.784ZM315.187 688.159V687.618L314.781 687.888L315.187 688.159ZM309.095 687.347V688.701L309.501 687.753L309.095 687.347ZM298.807 685.723V685.316V685.723ZM228.146 668.937L228.417 668.125L228.282 668.26L228.146 668.937L228.146 668.937ZM228.552 667.583L228.417 667.448L228.282 667.583H228.552H228.552ZM234.509 664.335V664.199V664.335ZM234.509 663.793L234.373 663.522L234.509 663.793ZM236.945 660.274H236.81H236.945ZM237.757 660.544L237.216 660.274V660.409L237.757 660.545V660.544ZM236.945 660.003V659.732L236.674 660.003H236.945ZM215.287 653.641L215.016 652.964L214.88 652.558L215.287 653.641H215.287ZM217.317 651.204H217.452L217.588 651.34L217.317 651.204H217.317ZM213.662 650.527L212.579 649.174L213.391 650.257L213.662 650.527V650.527ZM211.496 648.361H211.226L211.632 648.497L211.496 648.361H211.496ZM211.496 646.737L211.767 646.872L211.496 646.737ZM247.368 657.431L245.879 657.566L246.692 657.972L247.368 657.431V657.431ZM210.007 644.3L208.924 648.361L212.309 648.903L216.776 653.505L219.483 652.287L210.007 644.3V644.3ZM233.696 645.925V645.654V645.79V645.925V645.925ZM226.928 631.576L226.657 631.441L226.793 631.576H226.928H226.928ZM230.854 632.93L231.26 632.794H231.124L230.854 632.93H230.854ZM233.561 632.118H233.967L235.185 631.576L233.561 632.118ZM238.434 630.628L238.705 630.358L238.299 630.628H238.434H238.434ZM239.111 630.493L239.923 630.087L239.246 630.222L239.111 630.493L239.111 630.493ZM241.141 629.681L240.465 629.816V629.952L241.141 629.681V629.681ZM328.047 605.18L327.505 604.773L326.557 604.367L328.047 605.18V605.18ZM257.115 602.202L258.333 600.577L257.656 601.119L257.115 602.202ZM258.739 600.306L259.281 599.494L259.01 599.765L258.739 600.306ZM259.551 599.223L260.499 598.411L259.957 598.682L259.551 599.223ZM302.192 599.494L302.868 600.171H303.274L302.192 599.494ZM280.398 590.56L274.848 595.162L271.463 594.215L263.612 598.682L262.123 597.734L253.189 607.752L244.12 609.782L244.932 614.655L248.993 620.205L256.573 627.515L255.355 630.358L261.04 632.794L258.062 633.336L254.407 630.493L256.303 634.689L253.866 636.178L246.15 629.139L240.059 630.222L229.635 634.148L234.373 639.427L233.696 642.676L236.81 646.466L247.098 650.527L254.543 646.737L255.761 649.58L253.731 658.108H247.504L240.194 661.356L239.788 659.055L235.998 660.544L234.238 664.47L228.011 669.208V676.111L230.448 677.194L228.552 683.015L236.674 690.054L241.818 687.888L240.735 696.552L242.224 698.447L248.451 699.8L250.752 702.372L256.167 702.778L258.739 705.486L264.289 703.861L261.717 707.381L259.687 714.555L243.172 725.249L241.006 727.415L237.893 726.197L232.884 727.415L225.71 732.153L236.945 728.904L238.57 731.341L253.054 726.603L253.46 728.498L259.145 722.813L271.057 714.555L272.005 715.097L282.428 706.84L279.721 703.591L283.24 697.77L292.445 686.805L299.484 685.452L301.65 686.941L293.122 689.377L290.821 698.447L291.092 703.32L294.07 703.049L308.418 694.386L309.501 691.137L308.283 686.128L312.615 687.211L315.728 685.181L324.662 690.596L323.986 692.085L344.29 694.657L349.028 693.167L350.382 695.198L367.979 703.591L370.958 701.831L371.228 691.678L373.53 696.281L384.9 704.538L385.848 707.922L395.73 713.472L398.301 720.647L400.738 715.097L405.747 724.843L409.131 719.293L406.423 712.389L396 711.307L380.027 696.01L371.364 689.648L364.731 696.146H360.805L351.736 690.189L342.801 689.783L330.077 609.511L327.911 605.721L322.767 602.608L315.051 604.097L309.095 602.878L301.515 599.9L293.528 600.442L291.498 596.652L285.135 595.704L284.053 593.403L281.21 596.652L280.398 590.56V590.56Z" fill="#BED4FF" stroke="#F0F5FF" stroke-width="2.1824" stroke-linejoin="round"/>
<path d="M1279.18 218.437L1285.95 212.481V212.21L1279.18 218.437ZM1292.85 200.975L1291.23 200.569L1290.96 201.787L1292.85 200.975ZM1296.51 198.538L1296.37 199.892L1296.64 199.08L1296.51 198.538ZM1292.72 198.674L1283.65 207.067L1269.7 213.023L1266.05 216.136L1265.78 219.114L1261.99 222.228L1262.53 226.289L1268.35 223.987L1276.88 217.084L1286.35 212.075L1300.7 198.538L1290.55 206.254L1287.3 207.608L1292.72 198.674ZM1296.91 192.988L1297.45 192.176L1295.83 194.071L1296.91 192.988Z" fill="#BED4FF" stroke="#F0F5FF" stroke-width="2.1824" stroke-linejoin="round"/>
</g>
<defs>
<clipPath id="clip0_604_3264">
<rect width="1355" height="770" fill="white"/>
</clipPath>
</defs>
</svg>
