<svg width="78" height="78" viewBox="0 0 78 78" fill="none" xmlns="http://www.w3.org/2000/svg">
<path d="M52.0635 30.6875H25.9385C25.2826 30.6875 24.751 31.2192 24.751 31.875V50.875C24.751 51.5308 25.2826 52.0625 25.9385 52.0625H52.0635C52.7193 52.0625 53.251 51.5308 53.251 50.875V31.875C53.251 31.2192 52.7193 30.6875 52.0635 30.6875Z" stroke="#09268D" stroke-width="2" stroke-linecap="round" stroke-linejoin="round"/>
<path d="M44.9375 30.6875V28.3125C44.9375 27.6826 44.6873 27.0785 44.2419 26.6331C43.7965 26.1877 43.1924 25.9375 42.5625 25.9375H35.4375C34.8076 25.9375 34.2035 26.1877 33.7581 26.6331C33.3127 27.0785 33.0625 27.6826 33.0625 28.3125V30.6875" stroke="#09268D" stroke-width="2" stroke-linecap="round" stroke-linejoin="round"/>
<path d="M53.2512 38.749C48.9202 41.2547 44.0036 42.5704 39 42.5625C33.9973 42.5704 29.0814 41.2552 24.751 38.7503" stroke="#09268D" stroke-width="2" stroke-linecap="round" stroke-linejoin="round"/>
<path d="M37.2188 37.8125H40.7812" stroke="#09268D" stroke-width="2" stroke-linecap="round" stroke-linejoin="round"/>
<rect x="0.5" y="0.5" width="77" height="77" rx="38.5" stroke="#ABB9CA"/>
</svg>
