<svg width="16" height="16" viewBox="0 0 16 16" fill="none" xmlns="http://www.w3.org/2000/svg">
<path d="M15.6609 4.1537C15.4783 3.46781 14.9304 2.92083 14.2435 2.73851C13 2.3999 8 2.3999 8 2.3999C8 2.3999 2.9913 2.40858 1.74783 2.74719C1.06087 2.92951 0.513043 3.47649 0.330435 4.16238C2.07321e-08 5.40393 0 7.9999 0 7.9999C0 7.9999 0 10.5959 0.33913 11.8461C0.521739 12.532 1.06957 13.079 1.75652 13.2613C3 13.5999 8 13.5999 8 13.5999C8 13.5999 13 13.5999 14.2435 13.2613C14.9304 13.079 15.4783 12.532 15.6609 11.8461C16 10.6046 16 7.9999 16 7.9999C16 7.9999 16 5.40393 15.6609 4.1537V4.1537ZM6.4 10.3962V5.60362L10.5565 7.9999L6.4 10.3962Z" fill="#011D47"/>
</svg>
